<svg width="31" height="31" viewBox="0 0 31 31" fill="none" xmlns="http://www.w3.org/2000/svg">
<g clip-path="url(#clip0_166_492)">
<path d="M27.7309 20.7187H26.6471V19.7624H27.7309C28.4959 19.7624 29.1334 19.1249 29.1334 18.3599V11.6662C29.1334 10.4549 28.1134 9.43492 26.9021 9.43492H19.8896C18.6784 9.43492 17.6584 10.4549 17.6584 11.6662V18.3599C17.6584 19.1249 18.2959 19.7624 19.0609 19.7624H20.1446V20.7187H19.0609C17.7221 20.7187 16.7021 19.6349 16.7021 18.3599V11.6662C16.7021 9.88117 18.1046 8.47867 19.8896 8.47867H26.9659C28.7509 8.47867 30.1534 9.88117 30.1534 11.6662V18.3599C30.1534 19.6987 29.0696 20.7187 27.7309 20.7187ZM23.3959 7.45867C21.4834 7.45867 19.8896 5.86492 19.8896 3.95242C19.8896 2.03992 21.4834 0.446167 23.3959 0.446167C25.3084 0.446167 26.9021 2.03992 26.9021 3.95242C26.9021 5.86492 25.3721 7.45867 23.3959 7.45867ZM23.3959 1.46617C21.9934 1.46617 20.8459 2.61367 20.8459 4.01617C20.8459 5.41867 21.9934 6.56617 23.3959 6.56617C24.7984 6.56617 25.9459 5.41867 25.9459 4.01617C25.9459 2.61367 24.7984 1.46617 23.3959 1.46617Z" fill="#F5F5F4"/>
<path d="M25.0539 30.1536C24.4164 30.1536 23.8427 29.8349 23.4602 29.3886C23.0777 29.8349 22.5039 30.1536 21.8664 30.1536C20.7189 30.1536 19.7627 29.1974 19.7627 28.0499V12.4949H20.7189V28.0499C20.7189 28.6874 21.2289 29.1974 21.8664 29.1974C22.5039 29.1974 22.9502 28.6236 22.9502 28.0499V20.2724H23.9064V28.0499C23.9064 28.6874 24.4164 29.1974 25.0539 29.1974C25.6914 29.1974 26.2014 28.6874 26.2014 28.0499V12.4949H27.1577V28.0499C27.1577 29.1974 26.2014 30.1536 25.0539 30.1536Z" fill="#F5F5F4"/>
<path d="M18.1685 23.5237H0.509766V3.50623H18.4873V4.46248H1.46602V22.5675H18.1685V23.5237Z" fill="#F5F5F4"/>
<path d="M15.0451 12.4313H4.08008V13.3875H15.0451V12.4313Z" fill="#F5F5F4"/>
<path d="M15.0451 15.6825H4.08008V16.6387H15.0451V15.6825Z" fill="#F5F5F4"/>
<path d="M15.0451 18.9974H4.08008V19.9537H15.0451V18.9974Z" fill="#F5F5F4"/>
</g>
<defs>
<clipPath id="clip0_166_492">
<rect width="30.6" height="30.6" fill="white"/>
</clipPath>
</defs>
</svg>
