<svg width="29" height="28" viewBox="0 0 29 28" fill="none" xmlns="http://www.w3.org/2000/svg">
<path d="M22.1125 0H6.8875C5.06082 0 3.30896 0.757431 2.0173 2.10567C0.725645 3.4539 0 5.2825 0 7.18919V20.8108C0 21.7549 0.178151 22.6898 0.52428 23.562C0.870409 24.4342 1.37774 25.2268 2.0173 25.8943C3.30896 27.2426 5.06082 28 6.8875 28H22.1125C23.938 27.996 25.6876 27.2373 26.9785 25.8899C28.2693 24.5426 28.9962 22.7163 29 20.8108V7.18919C28.9962 5.28373 28.2693 3.45745 26.9785 2.11008C25.6876 0.762713 23.938 0.00399889 22.1125 0ZM16.82 12.5924C16.1066 13.0171 15.2995 13.2404 14.4782 13.2404C13.657 13.2404 12.8499 13.0171 12.1365 12.5924L2.204 6.64432C2.33243 5.44154 2.88116 4.33039 3.74523 3.52341C4.6093 2.71643 5.72805 2.27027 6.8875 2.27027H22.1125C23.271 2.27359 24.3881 2.72089 25.2515 3.52725C26.1149 4.3336 26.6645 5.44284 26.796 6.64432L16.82 12.5924Z" fill="white"/>
</svg>
