<svg width="126" height="126" viewBox="0 0 126 126" fill="none" xmlns="http://www.w3.org/2000/svg">
<g filter="url(#filter0_d_166_490)">
<rect x="38.25" y="19.89" width="48.96" height="48.96" rx="12.24" fill="#005A8C"/>
<g clip-path="url(#clip0_166_490)">
<path d="M75.1606 49.7886H74.0768V48.8324H75.1606C75.9256 48.8324 76.5631 48.1949 76.5631 47.4299V40.7361C76.5631 39.5249 75.5431 38.5049 74.3318 38.5049H67.3193C66.1081 38.5049 65.0881 39.5249 65.0881 40.7361V47.4299C65.0881 48.1949 65.7256 48.8324 66.4906 48.8324H67.5743V49.7886H66.4906C65.1518 49.7886 64.1318 48.7049 64.1318 47.4299V40.7361C64.1318 38.9511 65.5343 37.5486 67.3193 37.5486H74.3956C76.1806 37.5486 77.5831 38.9511 77.5831 40.7361V47.4299C77.5831 48.7686 76.4993 49.7886 75.1606 49.7886ZM70.8256 36.5286C68.9131 36.5286 67.3193 34.9349 67.3193 33.0224C67.3193 31.1099 68.9131 29.5161 70.8256 29.5161C72.7381 29.5161 74.3318 31.1099 74.3318 33.0224C74.3318 34.9349 72.8018 36.5286 70.8256 36.5286ZM70.8256 30.5361C69.4231 30.5361 68.2756 31.6836 68.2756 33.0861C68.2756 34.4886 69.4231 35.6361 70.8256 35.6361C72.2281 35.6361 73.3756 34.4886 73.3756 33.0861C73.3756 31.6836 72.2281 30.5361 70.8256 30.5361Z" fill="#F5F5F4"/>
<path d="M72.4836 59.2236C71.8461 59.2236 71.2724 58.9048 70.8899 58.4586C70.5074 58.9048 69.9336 59.2236 69.2961 59.2236C68.1486 59.2236 67.1924 58.2673 67.1924 57.1198V41.5648H68.1486V57.1198C68.1486 57.7573 68.6586 58.2673 69.2961 58.2673C69.9336 58.2673 70.3799 57.6936 70.3799 57.1198V49.3423H71.3361V57.1198C71.3361 57.7573 71.8461 58.2673 72.4836 58.2673C73.1211 58.2673 73.6311 57.7573 73.6311 57.1198V41.5648H74.5874V57.1198C74.5874 58.2673 73.6311 59.2236 72.4836 59.2236Z" fill="#F5F5F4"/>
<path d="M65.5982 52.5937H47.9395V32.5762H65.917V33.5324H48.8957V51.6374H65.5982V52.5937Z" fill="#F5F5F4"/>
<path d="M62.4748 41.5012H51.5098V42.4575H62.4748V41.5012Z" fill="#F5F5F4"/>
<path d="M62.4748 44.7524H51.5098V45.7087H62.4748V44.7524Z" fill="#F5F5F4"/>
<path d="M62.4748 48.0674H51.5098V49.0236H62.4748V48.0674Z" fill="#F5F5F4"/>
</g>
</g>
<defs>
<filter id="filter0_d_166_490" x="0" y="1.52588e-05" width="125.46" height="125.46" filterUnits="userSpaceOnUse" color-interpolation-filters="sRGB">
<feFlood flood-opacity="0" result="BackgroundImageFix"/>
<feColorMatrix in="SourceAlpha" type="matrix" values="0 0 0 0 0 0 0 0 0 0 0 0 0 0 0 0 0 0 127 0" result="hardAlpha"/>
<feOffset dy="18.36"/>
<feGaussianBlur stdDeviation="19.125"/>
<feComposite in2="hardAlpha" operator="out"/>
<feColorMatrix type="matrix" values="0 0 0 0 0.0509804 0 0 0 0 0.0470588 0 0 0 0 0.219608 0 0 0 0.15 0"/>
<feBlend mode="normal" in2="BackgroundImageFix" result="effect1_dropShadow_166_490"/>
<feBlend mode="normal" in="SourceGraphic" in2="effect1_dropShadow_166_490" result="shape"/>
</filter>
<clipPath id="clip0_166_490">
<rect width="30.6" height="30.6" fill="white" transform="translate(47.4297 29.0699)"/>
</clipPath>
</defs>
</svg>
