<svg width="12" height="12" viewBox="0 0 12 12" fill="none" xmlns="http://www.w3.org/2000/svg">
<path d="M2.41333 5.0773C3.37333 6.92181 4.92 8.42741 6.80667 9.37247L8.27333 7.93858C8.45333 7.7626 8.72 7.70394 8.95333 7.78215C9.7 8.02331 10.5067 8.15366 11.3333 8.15366C11.7 8.15366 12 8.44696 12 8.80543V11.0801C12 11.4386 11.7 11.7319 11.3333 11.7319C5.07333 11.7319 0 6.77191 0 0.651772C0 0.293297 0.3 0 0.666667 0H3C3.36667 0 3.66667 0.293297 3.66667 0.651772C3.66667 1.46649 3.8 2.24861 4.04667 2.9786C4.12 3.20672 4.06667 3.46091 3.88 3.6434L2.41333 5.0773Z" fill="#2B2929"/>
</svg>
