<svg width="12" height="11" viewBox="0 0 12 11" fill="none" xmlns="http://www.w3.org/2000/svg">
<g clip-path="url(#clip0_126_316)">
<path d="M6 0.5C6.35362 0.5 6.69276 0.644866 6.94281 0.902728C7.19286 1.16059 7.33333 1.51033 7.33333 1.875C7.33333 2.23967 7.19286 2.58941 6.94281 2.84727C6.69276 3.10513 6.35362 3.25 6 3.25C5.64638 3.25 5.30724 3.10513 5.05719 2.84727C4.80714 2.58941 4.66667 2.23967 4.66667 1.875C4.66667 1.51033 4.80714 1.16059 5.05719 0.902728C5.30724 0.644866 5.64638 0.5 6 0.5ZM8 7.20312C8 7.74023 7.73542 8.21289 7.33333 8.49004V9.4375H4.66667V8.49004C4.26458 8.21289 4 7.74023 4 7.20312V6.34375C4 5.20508 4.89583 4.28125 6 4.28125C7.10417 4.28125 8 5.20508 8 6.34375V7.20312ZM8.33333 9.4375V8.85098C8.74792 8.36758 9 7.72949 9 7.03125V6.34375C9 5.77012 8.84792 5.23516 8.58542 4.77324C8.81667 4.67656 9.06875 4.625 9.33333 4.625C10.4375 4.625 11.3333 5.54883 11.3333 6.6875V7.375C11.3333 7.88418 11.0646 8.32891 10.6667 8.56523V9.4375H8.33333ZM1.33333 8.56523C0.935417 8.32891 0.666667 7.88418 0.666667 7.375V6.6875C0.666667 5.54883 1.5625 4.625 2.66667 4.625C2.93125 4.625 3.18333 4.67871 3.41458 4.77324C3.15208 5.23301 3 5.77012 3 6.34375V7.03125C3 7.72949 3.25208 8.36543 3.66667 8.85098V9.4375H1.33333V8.56523ZM2.66667 1.1875C2.81988 1.1875 2.97158 1.21862 3.11313 1.27908C3.25468 1.33955 3.38329 1.42817 3.49162 1.53989C3.59996 1.65161 3.6859 1.78424 3.74453 1.93021C3.80316 2.07618 3.83333 2.23263 3.83333 2.39062C3.83333 2.54862 3.80316 2.70507 3.74453 2.85104C3.6859 2.99701 3.59996 3.12964 3.49162 3.24136C3.38329 3.35308 3.25468 3.4417 3.11313 3.50217C2.97158 3.56263 2.81988 3.59375 2.66667 3.59375C2.51346 3.59375 2.36175 3.56263 2.2202 3.50217C2.07866 3.4417 1.95004 3.35308 1.84171 3.24136C1.73337 3.12964 1.64744 2.99701 1.58881 2.85104C1.53018 2.70507 1.5 2.54862 1.5 2.39062C1.5 2.23263 1.53018 2.07618 1.58881 1.93021C1.64744 1.78424 1.73337 1.65161 1.84171 1.53989C1.95004 1.42817 2.07866 1.33955 2.2202 1.27908C2.36175 1.21862 2.51346 1.1875 2.66667 1.1875ZM9.33333 1.1875C9.48654 1.1875 9.63825 1.21862 9.7798 1.27908C9.92134 1.33955 10.05 1.42817 10.1583 1.53989C10.2666 1.65161 10.3526 1.78424 10.4112 1.93021C10.4698 2.07618 10.5 2.23263 10.5 2.39062C10.5 2.54862 10.4698 2.70507 10.4112 2.85104C10.3526 2.99701 10.2666 3.12964 10.1583 3.24136C10.05 3.35308 9.92134 3.4417 9.7798 3.50217C9.63825 3.56263 9.48654 3.59375 9.33333 3.59375C9.18012 3.59375 9.02842 3.56263 8.88687 3.50217C8.74532 3.4417 8.61671 3.35308 8.50838 3.24136C8.40004 3.12964 8.31411 2.99701 8.25547 2.85104C8.19684 2.70507 8.16667 2.54862 8.16667 2.39062C8.16667 2.23263 8.19684 2.07618 8.25547 1.93021C8.31411 1.78424 8.40004 1.65161 8.50838 1.53989C8.61671 1.42817 8.74532 1.33955 8.88687 1.27908C9.02842 1.21862 9.18012 1.1875 9.33333 1.1875ZM0.5 10.4688H11.5C11.7771 10.4688 12 10.6986 12 10.9844C12 11.2701 11.7771 11.5 11.5 11.5H0.5C0.222917 11.5 0 11.2701 0 10.9844C0 10.6986 0.222917 10.4688 0.5 10.4688Z" fill="#EE920F"/>
</g>
<defs>
<clipPath id="clip0_126_316">
<rect width="12" height="11" fill="white"/>
</clipPath>
</defs>
</svg>
