<svg width="14" height="14" viewBox="0 0 14 14" fill="none" xmlns="http://www.w3.org/2000/svg">
<g clip-path="url(#clip0_126_122)">
<path d="M0.468829 12.8851L1.01672 12.8859L3.74116 6.26404L4.07731 6.73847L1.54739 12.8867L2.79599 12.8885L4.86267 7.84451L6.7834 10.5499L6.85801 10.6543L6.98534 10.6536L7.50451 10.6503L9.84097 4.78355L10.3692 4.78678L8.03513 10.6462L8.83609 10.6407L9.18276 10.6379L9.177 10.6223L9.19261 10.6224L11.5865 4.79351L12.7768 4.80094L11.9574 0.556143L8.10692 4.77284L9.27253 4.77947L7.84478 8.25542L6.12069 5.86007L6.04614 5.75639L5.91799 5.75789L5.71671 5.76002L5.71916 5.75429L3.39198 5.78131L0.46875 12.8851L0.468829 12.8851ZM4.34663 6.26823L5.79649 6.25061L7.62551 8.79069L7.07972 10.1182L4.34663 6.26823Z" fill="#EE920F"/>
</g>
<defs>
<clipPath id="clip0_126_122">
<rect width="13.4587" height="13.4587" fill="white" transform="translate(0 13.4586) rotate(-89.9172)"/>
</clipPath>
</defs>
</svg>
