<svg width="34" height="32" viewBox="0 0 34 32" fill="none" xmlns="http://www.w3.org/2000/svg">
<path d="M5.63758 23.766C2.77175 24.6257 1 25.8132 1 27.125C1 29.7486 8.08858 31.875 16.8333 31.875C25.5781 31.875 32.6667 29.7486 32.6667 27.125C32.6667 25.8132 30.8941 24.6257 28.0291 23.766" stroke="white" stroke-width="2" stroke-linecap="round" stroke-linejoin="round"/>
<path d="M16.8327 25.5417C16.8327 25.5417 27.1243 18.8157 27.1243 11.0399C27.1243 5.49508 22.5168 1 16.8327 1C11.1485 1 6.54102 5.49508 6.54102 11.0399C6.54102 18.8157 16.8327 25.5417 16.8327 25.5417Z" stroke="white" stroke-width="2" stroke-linejoin="round"/>
<path d="M16.8333 15.25C17.8831 15.25 18.89 14.833 19.6323 14.0907C20.3746 13.3483 20.7917 12.3415 20.7917 11.2917C20.7917 10.2419 20.3746 9.23507 19.6323 8.49274C18.89 7.75041 17.8831 7.33337 16.8333 7.33337C15.7835 7.33337 14.7767 7.75041 14.0344 8.49274C13.292 9.23507 12.875 10.2419 12.875 11.2917C12.875 12.3415 13.292 13.3483 14.0344 14.0907C14.7767 14.833 15.7835 15.25 16.8333 15.25Z" stroke="white" stroke-width="2" stroke-linejoin="round"/>
</svg>
