<svg width="202" height="226" viewBox="0 0 202 226" fill="none" xmlns="http://www.w3.org/2000/svg">
<g clip-path="url(#clip0_1219_306)">
<path d="M47.7419 171.017C49.3942 171.017 50.7337 169.509 50.7337 167.649C50.7337 165.79 49.3942 164.282 47.7419 164.282C46.0895 164.282 44.75 165.79 44.75 167.649C44.75 169.509 46.0895 171.017 47.7419 171.017Z" fill="black"/>
<path d="M22.1452 164.282C20.4945 164.282 19.1533 165.793 19.1533 167.649C19.1533 169.506 20.4945 171.017 22.1452 171.017C23.7959 171.017 25.137 169.506 25.137 167.649C25.137 165.793 23.7959 164.282 22.1452 164.282Z" fill="black"/>
<path d="M21.7213 136.911C20.0707 136.911 18.7295 138.421 18.7295 140.278C18.7295 142.134 20.0707 143.645 21.7213 143.645C23.372 143.645 24.7132 142.134 24.7132 140.278C24.7132 138.421 23.372 136.911 21.7213 136.911Z" fill="black"/>
<path d="M72.9147 136.911C71.264 136.911 69.9229 138.421 69.9229 140.278C69.9229 142.134 71.264 143.645 72.9147 143.645C74.5654 143.645 75.9066 142.134 75.9066 140.278C75.9066 138.421 74.5654 136.911 72.9147 136.911Z" fill="black"/>
<path d="M47.318 136.911C45.6673 136.911 44.3262 138.421 44.3262 140.278C44.3262 142.134 45.6673 143.645 47.318 143.645C48.9687 143.645 50.3099 142.134 50.3099 140.278C50.3099 138.421 48.9687 136.911 47.318 136.911Z" fill="black"/>
<path d="M21.7213 191.667C20.0707 191.667 18.7295 193.178 18.7295 195.034C18.7295 196.891 20.0707 198.401 21.7213 198.401C23.372 198.401 24.7132 196.891 24.7132 195.034C24.7132 193.178 23.372 191.667 21.7213 191.667Z" fill="black"/>
<path d="M98.0876 109.526C96.4369 109.526 95.0957 111.037 95.0957 112.893C95.0957 114.749 96.4369 116.26 98.0876 116.26C99.7382 116.26 101.079 114.749 101.079 112.893C101.079 111.037 99.7382 109.526 98.0876 109.526Z" fill="black"/>
<path d="M46.8942 109.526C45.2435 109.526 43.9023 111.037 43.9023 112.893C43.9023 114.749 45.2435 116.26 46.8942 116.26C48.5449 116.26 49.886 114.749 49.886 112.893C49.886 111.037 48.5449 109.526 46.8942 109.526Z" fill="black"/>
<path d="M72.4909 116.26C74.1432 116.26 75.4827 114.753 75.4827 112.893C75.4827 111.033 74.1432 109.526 72.4909 109.526C70.8385 109.526 69.499 111.033 69.499 112.893C69.499 114.753 70.8385 116.26 72.4909 116.26Z" fill="black"/>
<path d="M21.2858 109.526C19.6351 109.526 18.2939 111.037 18.2939 112.893C18.2939 114.749 19.6351 116.26 21.2858 116.26C22.9365 116.26 24.2777 114.749 24.2777 112.893C24.2777 111.037 22.9479 109.526 21.2858 109.526Z" fill="black"/>
<path d="M97.652 82.1412C96.0013 82.1412 94.6602 83.6519 94.6602 85.5083C94.6602 87.3647 96.0013 88.8754 97.652 88.8754C99.3027 88.8754 100.644 87.3647 100.644 85.5083C100.644 83.6519 99.3027 82.1412 97.652 82.1412Z" fill="black"/>
<path d="M72.0553 82.1412C70.4047 82.1412 69.0635 83.6519 69.0635 85.5083C69.0635 87.3647 70.4047 88.8754 72.0553 88.8754C73.706 88.8754 75.0472 87.3647 75.0472 85.5083C75.0472 83.6519 73.706 82.1412 72.0553 82.1412Z" fill="black"/>
<path d="M46.4586 82.1412C44.808 82.1412 43.4668 83.6519 43.4668 85.5083C43.4668 87.3647 44.808 88.8754 46.4586 88.8754C48.1093 88.8754 49.4505 87.3647 49.4505 85.5083C49.4505 83.6519 48.1093 82.1412 46.4586 82.1412Z" fill="black"/>
<path d="M123.26 82.1412C121.61 82.1412 120.269 83.6519 120.269 85.5083C120.269 87.3647 121.61 88.8754 123.26 88.8754C124.911 88.8754 126.252 87.3647 126.252 85.5083C126.252 83.6519 124.911 82.1412 123.26 82.1412Z" fill="black"/>
<path d="M20.861 82.1412C19.2103 82.1412 17.8691 83.6519 17.8691 85.5083C17.8691 87.3647 19.2103 88.8754 20.861 88.8754C22.5117 88.8754 23.8528 87.3647 23.8528 85.5083C23.8528 83.6519 22.5117 82.1412 20.861 82.1412Z" fill="black"/>
<path d="M97.2282 61.4907C98.8805 61.4907 100.22 59.9832 100.22 58.1236C100.22 56.264 98.8805 54.7565 97.2282 54.7565C95.5758 54.7565 94.2363 56.264 94.2363 58.1236C94.2363 59.9832 95.5758 61.4907 97.2282 61.4907Z" fill="black"/>
<path d="M148.422 61.4907C150.074 61.4907 151.413 59.9832 151.413 58.1236C151.413 56.264 150.074 54.7565 148.422 54.7565C146.769 54.7565 145.43 56.264 145.43 58.1236C145.43 59.9832 146.769 61.4907 148.422 61.4907Z" fill="black"/>
<path d="M71.6305 54.7565C69.9798 54.7565 68.6387 56.2672 68.6387 58.1236C68.6387 59.98 69.9798 61.4907 71.6305 61.4907C73.2812 61.4907 74.6224 59.98 74.6224 58.1236C74.6224 56.2672 73.2812 54.7565 71.6305 54.7565Z" fill="black"/>
<path d="M46.0338 54.7565C44.3832 54.7565 43.042 56.2672 43.042 58.1236C43.042 59.98 44.3832 61.4907 46.0338 61.4907C47.6845 61.4907 49.0257 59.98 49.0257 58.1236C49.0257 56.2672 47.6845 54.7565 46.0338 54.7565Z" fill="black"/>
<path d="M20.4372 54.7565C18.7865 54.7565 17.4453 56.2672 17.4453 58.1236C17.4453 59.98 18.7865 61.4907 20.4372 61.4907C22.0878 61.4907 23.429 59.98 23.429 58.1236C23.429 56.2672 22.0878 54.7565 20.4372 54.7565Z" fill="black"/>
<path d="M122.825 54.7565C121.174 54.7565 119.833 56.2672 119.833 58.1236C119.833 59.98 121.174 61.4907 122.825 61.4907C124.476 61.4907 125.817 59.98 125.817 58.1236C125.817 56.2672 124.476 54.7565 122.825 54.7565Z" fill="black"/>
<path d="M122.401 27.3846C120.75 27.3846 119.409 28.8953 119.409 30.7517C119.409 32.6081 120.75 34.1188 122.401 34.1188C124.052 34.1188 125.393 32.6081 125.393 30.7517C125.393 28.8953 124.052 27.3846 122.401 27.3846Z" fill="black"/>
<path d="M20.0133 27.3846C18.3627 27.3846 17.0215 28.8953 17.0215 30.7517C17.0215 32.6081 18.3627 34.1188 20.0133 34.1188C21.664 34.1188 23.0052 32.6081 23.0052 30.7517C23.0052 28.8953 21.664 27.3846 20.0133 27.3846Z" fill="black"/>
<path d="M71.2067 27.3846C69.556 27.3846 68.2148 28.8953 68.2148 30.7517C68.2148 32.6081 69.556 34.1188 71.2067 34.1188C72.8574 34.1188 74.1985 32.6081 74.1985 30.7517C74.1985 28.8953 72.8574 27.3846 71.2067 27.3846Z" fill="black"/>
<path d="M45.61 27.3846C43.9593 27.3846 42.6182 28.8953 42.6182 30.7517C42.6182 32.6081 43.9593 34.1188 45.61 34.1188C47.2607 34.1188 48.6019 32.6081 48.6019 30.7517C48.6019 28.8953 47.2607 27.3846 45.61 27.3846Z" fill="black"/>
<path d="M96.8034 27.3846C95.1527 27.3846 93.8115 28.8953 93.8115 30.7517C93.8115 32.6081 95.1527 34.1188 96.8034 34.1188C98.4541 34.1188 99.7952 32.6081 99.7952 30.7517C99.7952 28.8953 98.4541 27.3846 96.8034 27.3846Z" fill="black"/>
<path d="M173.594 27.3846C171.944 27.3846 170.603 28.8953 170.603 30.7517C170.603 32.6081 171.944 34.1188 173.594 34.1188C175.245 34.1188 176.586 32.6081 176.586 30.7517C176.586 28.8953 175.257 27.3846 173.594 27.3846Z" fill="black"/>
<path d="M147.998 27.3846C146.347 27.3846 145.006 28.8953 145.006 30.7517C145.006 32.6081 146.347 34.1188 147.998 34.1188C149.648 34.1188 150.99 32.6081 150.99 30.7517C150.99 28.8953 149.66 27.3846 147.998 27.3846Z" fill="black"/>
<path d="M19.5885 6.72133C21.2392 6.72133 22.5804 5.21063 22.5804 3.35425C22.5804 1.49788 21.2392 -0.0128174 19.5885 -0.0128174C17.9379 -0.0128174 16.5967 1.49788 16.5967 3.35425C16.5967 5.21063 17.9379 6.72133 19.5885 6.72133Z" fill="black"/>
<path d="M173.171 6.73414C174.823 6.73414 176.162 5.22666 176.162 3.36707C176.162 1.50749 174.823 0 173.171 0C171.518 0 170.179 1.50749 170.179 3.36707C170.179 5.22666 171.518 6.73414 173.171 6.73414Z" fill="black"/>
<path d="M96.3795 6.72133C98.0302 6.72133 99.3714 5.21063 99.3714 3.35425C99.3714 1.49788 98.0302 -0.0128174 96.3795 -0.0128174C94.7289 -0.0128174 93.3877 1.49788 93.3877 3.35425C93.3877 5.21063 94.7289 6.72133 96.3795 6.72133Z" fill="black"/>
<path d="M121.976 6.72133C123.627 6.72133 124.968 5.21063 124.968 3.35425C124.968 1.49788 123.627 -0.0128174 121.976 -0.0128174C120.326 -0.0128174 118.984 1.49788 118.984 3.35425C118.984 5.21063 120.326 6.72133 121.976 6.72133Z" fill="black"/>
<path d="M147.574 6.72133C149.225 6.72133 150.566 5.21063 150.566 3.35425C150.566 1.49788 149.225 -0.0128174 147.574 -0.0128174C145.923 -0.0128174 144.582 1.49788 144.582 3.35425C144.582 5.21063 145.923 6.72133 147.574 6.72133Z" fill="black"/>
<path d="M45.1862 6.72133C46.8369 6.72133 48.178 5.21063 48.178 3.35425C48.178 1.49788 46.8369 -0.0128174 45.1862 -0.0128174C43.5355 -0.0128174 42.1943 1.49788 42.1943 3.35425C42.1943 5.21063 43.5355 6.72133 45.1862 6.72133Z" fill="black"/>
<path d="M198.767 6.72133C200.418 6.72133 201.759 5.21063 201.759 3.35425C201.759 1.49788 200.429 -0.0128174 198.767 -0.0128174C197.105 -0.0128174 195.775 1.49788 195.775 3.35425C195.775 5.21063 197.117 6.72133 198.767 6.72133Z" fill="black"/>
<path d="M70.7829 6.72133C72.4335 6.72133 73.7747 5.21063 73.7747 3.35425C73.7747 1.49788 72.4335 -0.0128174 70.7829 -0.0128174C69.1322 -0.0128174 67.791 1.49788 67.791 3.35425C67.791 5.21063 69.1322 6.72133 70.7829 6.72133Z" fill="black"/>
</g>
<defs>
<clipPath id="clip0_1219_306">
<rect width="210.759" height="225.773" fill="white" transform="translate(-9)"/>
</clipPath>
</defs>
</svg>
