<svg width="40" height="40" viewBox="0 0 40 40" fill="none" xmlns="http://www.w3.org/2000/svg">
<g clip-path="url(#clip0_181_502)">
<path d="M20 0.5C30.7696 0.5 39.5 9.23045 39.5 20C39.5 30.7696 30.7696 39.5 20 39.5C9.23045 39.5 0.5 30.7696 0.5 20C0.5 9.23045 9.23045 0.5 20 0.5Z" fill="#0052B4" stroke="#0052B4"/>
<path fill-rule="evenodd" clip-rule="evenodd" d="M20.0003 9.16687C14.0172 9.16687 9.16699 14.0171 9.16699 20.0002C9.16699 25.9833 14.0172 30.8335 20.0003 30.8335C25.9834 30.8335 30.8337 25.9833 30.8337 20.0002C30.8337 14.0171 25.9834 9.16687 20.0003 9.16687ZM7.91699 20.0002C7.91699 13.3268 13.3269 7.91687 20.0003 7.91687C26.6738 7.91687 32.0837 13.3268 32.0837 20.0002C32.0837 26.6736 26.6738 32.0835 20.0003 32.0835C13.3269 32.0835 7.91699 26.6736 7.91699 20.0002Z" fill="white"/>
<path fill-rule="evenodd" clip-rule="evenodd" d="M7.91699 20C7.91699 19.6548 8.19681 19.375 8.54199 19.375H31.4587C31.8038 19.375 32.0837 19.6548 32.0837 20C32.0837 20.3452 31.8038 20.625 31.4587 20.625H8.54199C8.19681 20.625 7.91699 20.3452 7.91699 20Z" fill="white"/>
<path fill-rule="evenodd" clip-rule="evenodd" d="M16.0421 20C16.1255 23.8587 17.5263 27.5655 20.0003 30.5101C22.4744 27.5655 23.8752 23.8587 23.9585 20C23.8752 16.1412 22.4744 12.4344 20.0003 9.48984C17.5263 12.4344 16.1255 16.1412 16.0421 20ZM20.0003 8.54163L19.5389 8.12012C16.5706 11.3697 14.8838 15.5868 14.7921 19.9869C14.7919 19.9956 14.7919 20.0043 14.7921 20.013C14.8838 24.4132 16.5706 28.6303 19.5389 31.8798C19.6573 32.0094 19.8248 32.0833 20.0003 32.0833C20.1759 32.0833 20.3434 32.0094 20.4618 31.8798C23.43 28.6303 25.1169 24.4132 25.2085 20.013C25.2087 20.0043 25.2087 19.9956 25.2085 19.9869C25.1169 15.5868 23.43 11.3697 20.4618 8.12012L20.0003 8.54163Z" fill="white"/>
</g>
<defs>
<clipPath id="clip0_181_502">
<rect width="40" height="40" fill="white"/>
</clipPath>
</defs>
</svg>
