<svg width="32" height="32" viewBox="0 0 32 32" fill="none" xmlns="http://www.w3.org/2000/svg">
<g clip-path="url(#clip0_150_807)">
<path d="M12.7268 7.95425C11.8424 7.99597 11.2385 8.13711 10.7105 8.34457C10.1641 8.55751 9.70097 8.84327 9.24017 9.30573C8.77937 9.76819 8.49561 10.2317 8.28416 10.7789C8.07952 11.308 7.94088 11.9124 7.90182 12.7973C7.86275 13.6822 7.85411 13.9666 7.85843 16.2237C7.86275 18.4808 7.87273 18.7638 7.91562 19.6505C7.95784 20.5347 8.09847 21.1384 8.30593 21.6665C8.51921 22.213 8.80464 22.6759 9.26726 23.1369C9.72989 23.5978 10.193 23.8809 10.7416 24.0927C11.2702 24.297 11.8748 24.4363 12.7595 24.4751C13.6442 24.5138 13.929 24.5228 16.1854 24.5184C18.4419 24.5141 18.726 24.5042 19.6125 24.4621C20.499 24.42 21.0996 24.2784 21.6279 24.0719C22.1743 23.8582 22.6376 23.5732 23.0982 23.1104C23.5589 22.6477 23.8425 22.1839 24.0538 21.6363C24.2586 21.1077 24.3977 20.5031 24.4361 19.619C24.4748 18.7318 24.484 18.4486 24.4796 16.1918C24.4753 13.935 24.4652 13.6521 24.4231 12.7657C24.3811 11.8794 24.2403 11.2774 24.033 10.749C23.8194 10.2026 23.5343 9.73993 23.0718 9.27863C22.6094 8.81733 22.1452 8.53391 21.5978 8.32312C21.0689 8.11849 20.4646 7.97902 19.5799 7.94078C18.6952 7.90255 18.4105 7.89274 16.1532 7.89706C13.8959 7.90139 13.6133 7.91103 12.7268 7.95425ZM12.8238 22.9798C12.0134 22.9445 11.5734 22.8099 11.2802 22.6972C10.8919 22.5476 10.6153 22.3667 10.323 22.0773C10.0308 21.7879 9.85124 21.5103 9.69964 21.1228C9.58577 20.8296 9.44862 20.39 9.41072 19.5796C9.3695 18.7038 9.36085 18.4408 9.35603 16.2217C9.35121 14.0027 9.35969 13.74 9.39809 12.8638C9.43267 12.0541 9.56815 11.6136 9.68069 11.3205C9.8303 10.9317 10.0105 10.6555 10.3006 10.3635C10.5907 10.0714 10.8674 9.89154 11.2553 9.73993C11.5482 9.62556 11.9877 9.48958 12.7977 9.45102C13.6743 9.40946 13.9369 9.40115 16.1557 9.39633C18.3744 9.39151 18.6377 9.39982 19.5146 9.43838C20.3243 9.47362 20.765 9.60778 21.0577 9.72098C21.4462 9.87059 21.7227 10.0503 22.0147 10.3409C22.3068 10.6314 22.4868 10.9072 22.6384 11.2959C22.753 11.588 22.889 12.0273 22.9272 12.8379C22.9689 13.7144 22.9784 13.9772 22.9824 16.1958C22.9864 18.4143 22.9786 18.6778 22.9402 19.5537C22.9047 20.3641 22.7704 20.8043 22.6576 21.0979C22.5079 21.486 22.3276 21.7628 22.0373 22.0547C21.7471 22.3466 21.4707 22.5265 21.0827 22.6781C20.7901 22.7923 20.3501 22.9286 19.5407 22.9672C18.6641 23.0084 18.4015 23.017 16.1819 23.0218C13.9624 23.0267 13.7006 23.0177 12.824 22.9798M19.5997 11.7655C19.6 11.9628 19.6588 12.1555 19.7687 12.3194C19.8786 12.4832 20.0346 12.6108 20.217 12.686C20.3994 12.7611 20.6 12.7805 20.7934 12.7417C20.9868 12.7029 21.1644 12.6076 21.3037 12.4678C21.4429 12.328 21.5376 12.1501 21.5757 11.9566C21.6138 11.763 21.5937 11.5625 21.5178 11.3804C21.442 11.1983 21.3138 11.0427 21.1496 10.9334C20.9853 10.8242 20.7924 10.766 20.5951 10.7664C20.3306 10.767 20.0772 10.8725 19.8905 11.0598C19.7039 11.2472 19.5992 11.501 19.5997 11.7655ZM11.9014 16.2161C11.9061 18.5733 13.8204 20.4798 16.1771 20.4753C18.5338 20.4708 20.4417 18.5566 20.4372 16.1994C20.4327 13.8422 18.5178 11.9352 16.1608 11.9399C13.8038 11.9445 11.8969 13.8592 11.9014 16.2161ZM13.3985 16.2131C13.3974 15.6651 13.5589 15.1291 13.8624 14.6729C14.1659 14.2167 14.5979 13.8607 15.1038 13.65C15.6096 13.4393 16.1666 13.3833 16.7043 13.4891C17.2419 13.595 17.7361 13.8579 18.1244 14.2446C18.5126 14.6313 18.7775 15.1245 18.8854 15.6617C18.9934 16.1989 18.9396 16.7561 18.7309 17.2628C18.5222 17.7695 18.168 18.2029 17.713 18.5082C17.2579 18.8136 16.7226 18.9771 16.1746 18.9782C15.8108 18.979 15.4503 18.9081 15.1139 18.7695C14.7774 18.6309 14.4716 18.4275 14.2138 18.1707C13.956 17.9139 13.7513 17.6089 13.6114 17.273C13.4715 16.9371 13.3992 16.5769 13.3985 16.2131Z" fill="#111D15"/>
</g>
<defs>
<clipPath id="clip0_150_807">
<rect width="16.6234" height="16.6234" fill="white" transform="translate(7.85742 7.89612)"/>
</clipPath>
</defs>
</svg>
