<svg width="32" height="32" viewBox="0 0 32 32" fill="none" xmlns="http://www.w3.org/2000/svg">
<path fill-rule="evenodd" clip-rule="evenodd" d="M17.1881 12.4492V14.3299C17.582 13.73 18.1248 13.2426 18.7635 12.9155C19.4023 12.5883 20.115 12.4326 20.832 12.4636C24.6609 12.4636 25.4887 14.8574 25.4887 17.9715V24.3117H21.9424V18.6908C21.9424 17.3498 21.672 15.6254 19.5841 15.6254C17.5594 15.6254 17.2136 17.0849 17.2136 18.591V24.3117H13.6784V12.4492H17.1881ZM11.3034 9.4681C11.303 9.81941 11.1989 10.1628 11.0041 10.4551C10.8093 10.7475 10.5326 10.9759 10.2085 11.1116C9.88462 11.2462 9.52798 11.2814 9.18401 11.2128C8.84003 11.1441 8.52426 10.9746 8.27689 10.7259C8.02905 10.4771 7.86032 10.1605 7.79192 9.81605C7.72352 9.47157 7.75849 9.11455 7.89245 8.7899C8.02641 8.46524 8.25337 8.18745 8.5448 7.99144C8.83622 7.79543 9.17909 7.68996 9.53029 7.68829C9.7637 7.68829 9.99482 7.73438 10.2104 7.8239C10.426 7.91343 10.6217 8.04463 10.7865 8.20999C10.9512 8.37535 11.0817 8.5716 11.1704 8.7875C11.2591 9.0034 11.3043 9.23469 11.3034 9.4681Z" fill="#111D15"/>
<path d="M11.3041 12.4634H7.75781V24.3115H11.3041V12.4634Z" fill="#111D15"/>
</svg>
