<svg width="19" height="19" viewBox="0 0 19 19" fill="none" xmlns="http://www.w3.org/2000/svg">
<g clip-path="url(#clip0_126_195)">
<path d="M16.3309 9.33502H15.6659V8.66564H14.3316V5.33627H13.6666V13.3338H14.3316V15.3331H15.0009V13.9988H15.6659V13.3338H16.3309V12.6688H17.0003V10H16.3309V9.33502ZM15.0009 12.6688H14.3316V9.33502H15.0009V12.6688ZM12.3322 15.3331H14.3316V16.0025H12.3322V15.3331ZM12.9972 4.66689H13.6666V5.33627H12.9972V4.66689ZM12.3322 4.00189H12.9972V4.66689H12.3322V4.00189ZM7.66406 3.33252H12.3322V4.00189H7.66406V3.33252Z" fill="#EE920F"/>
<path d="M10.3325 16.0025H12.3319V16.6675H10.3325V16.0025ZM10.3325 14.6681H12.3319V15.3331H10.3325V14.6681ZM9.6675 15.3331H10.3325V16.0025H9.6675V15.3331ZM6.99875 4.00183H7.66375V4.66683H6.99875V4.00183ZM6.33375 4.66683H6.99875V5.33621H6.33375V4.66683ZM5.66438 8.66558H4.33438V9.33496H3.665V9.99996H3V12.6687H3.665V13.3337H4.33438V13.9987H5.66438V13.3337H6.33375V5.33621H5.66438V8.66558ZM5.66438 12.6687H4.99938V9.33496H5.66438V12.6687Z" fill="#EE920F"/>
</g>
<defs>
<clipPath id="clip0_126_195">
<rect width="14" height="14" fill="white" transform="translate(3 3)"/>
</clipPath>
</defs>
</svg>
