<svg width="19" height="19" viewBox="0 0 19 19" fill="none" xmlns="http://www.w3.org/2000/svg">
<path d="M11.1226 13.5375L12.6665 16.625L14.234 15.0176L16.625 15.0416L14.4005 10.6241V10.6165M7.8774 13.5375L6.33346 16.625L4.76596 15.0176L2.375 15.0416L4.59952 10.6241V10.6165" stroke="#EE920F" stroke-linecap="round" stroke-linejoin="round"/>
<path d="M15.2632 7.91658C15.2632 8.5185 14.7328 9.02504 14.5583 9.5635C14.3843 10.1016 14.5032 10.838 14.1628 11.305C13.8223 11.7721 13.0938 11.875 12.6663 12.2235C12.2388 12.572 11.8748 13.221 11.3207 13.403C10.7663 13.585 10.1408 13.2366 9.53931 13.2366C8.93777 13.2366 8.29671 13.5771 7.75825 13.403C7.21979 13.2286 6.87931 12.5556 6.41229 12.2235C5.94489 11.891 5.21681 11.7721 4.87633 11.305C4.53585 10.8376 4.66277 10.1175 4.48075 9.5635C4.29835 9.00908 3.73633 8.5185 3.73633 7.91658C3.73633 7.31466 4.26681 6.8085 4.44085 6.27004C4.61489 5.73158 4.49633 4.99552 4.83681 4.5285C5.17729 4.06148 5.90575 3.9585 6.37277 3.61004C6.83979 3.26158 7.12479 2.61254 7.71835 2.43052C8.31229 2.24812 8.89825 2.59658 9.49979 2.59658C10.1013 2.59658 10.7424 2.2561 11.2812 2.43052C11.8193 2.60456 12.1598 3.27754 12.6663 3.61004C13.1729 3.94254 13.8618 4.0611 14.2023 4.5285C14.5428 4.9959 14.4162 5.716 14.5982 6.27004C14.7803 6.82408 15.2632 7.31504 15.2632 7.91658ZM9.49979 5.54158C8.86985 5.54158 8.26571 5.79182 7.82028 6.23725C7.37484 6.68269 7.1246 7.28683 7.1246 7.91677C7.1246 8.5467 7.37484 9.15084 7.82028 9.59628C8.26571 10.0417 8.86985 10.292 9.49979 10.292C10.1297 10.292 10.7338 10.0417 11.1792 9.59633C11.6246 9.15094 11.8748 8.54684 11.8748 7.91696C11.8748 7.28707 11.6246 6.68298 11.1792 6.23758C10.7338 5.79218 10.1297 5.54158 9.49979 5.54158Z" stroke="#EE920F" stroke-linecap="round" stroke-linejoin="round"/>
</svg>
