<svg width="19" height="19" viewBox="0 0 19 19" fill="none" xmlns="http://www.w3.org/2000/svg">
<g clip-path="url(#clip0_126_173)">
<path d="M0.468829 14.8851L1.01672 14.8859L3.74116 8.26402L4.07731 8.73845L1.54739 14.8867L2.79599 14.8885L4.86267 9.84448L6.7834 12.5498L6.85801 12.6543L6.98534 12.6536L7.50451 12.6503L9.84097 6.78352L10.3692 6.78676L8.03513 12.6461L8.83609 12.6407L9.18276 12.6379L9.177 12.6223L9.19261 12.6223L11.5865 6.79348L12.7768 6.80091L11.9574 2.55612L8.10692 6.77281L9.27253 6.77944L7.84478 10.2554L6.12069 7.86004L6.04614 7.75637L5.91799 7.75786L5.71671 7.75999L5.71916 7.75426L3.39198 7.78129L0.46875 14.8851L0.468829 14.8851ZM4.34663 8.2682L5.79649 8.25059L7.62551 10.7907L7.07972 12.1181L4.34663 8.2682Z" fill="#EE920F"/>
</g>
<defs>
<clipPath id="clip0_126_173">
<rect width="13.4587" height="13.4587" fill="white" transform="translate(0 15.4586) rotate(-89.9172)"/>
</clipPath>
</defs>
</svg>
