<svg width="16" height="16" viewBox="0 0 16 16" fill="none" xmlns="http://www.w3.org/2000/svg">
<g clip-path="url(#clip0_126_111)">
<path d="M13.637 2.363L15.313 2.698C15.403 2.716 15.477 2.782 15.503 2.871C15.5161 2.91423 15.5173 2.96021 15.5064 3.00406C15.4955 3.0479 15.4729 3.08797 15.441 3.12L14.068 4.494C13.9035 4.65759 13.681 4.7496 13.449 4.75H12.31L9.45 7.611C9.50456 7.81702 9.5146 8.0323 9.47943 8.24251C9.44427 8.45271 9.36472 8.65301 9.24607 8.83006C9.12743 9.0071 8.97242 9.15684 8.79137 9.26928C8.61032 9.38172 8.40739 9.45429 8.19609 9.48215C7.98479 9.51001 7.76999 9.49253 7.56598 9.43086C7.36197 9.3692 7.17344 9.26476 7.01296 9.12452C6.85248 8.98428 6.72372 8.81145 6.63527 8.61755C6.54682 8.42365 6.50071 8.21312 6.5 8C6.49995 7.76982 6.55287 7.54272 6.65467 7.33628C6.75647 7.12984 6.90442 6.9496 7.08705 6.8095C7.26968 6.66941 7.48211 6.57323 7.70787 6.5284C7.93364 6.48357 8.1667 6.4913 8.389 6.551L11.25 3.689V2.552C11.25 2.32 11.342 2.097 11.506 1.933L12.88 0.558997C12.912 0.527126 12.9521 0.50453 12.9959 0.493613C13.0398 0.482696 13.0858 0.483865 13.129 0.496997C13.218 0.522997 13.284 0.596997 13.302 0.686997L13.637 2.363Z" fill="#EE920F"/>
<path d="M1.9997 8.00004C2.00073 8.85801 2.18574 9.70577 2.54227 10.4861C2.89879 11.2665 3.41853 11.9614 4.06643 12.5238C4.71432 13.0862 5.4753 13.5032 6.29804 13.7465C7.12077 13.9898 7.98612 14.0539 8.83571 13.9343C9.6853 13.8148 10.4994 13.5144 11.223 13.0535C11.9467 12.5926 12.563 11.9818 13.0306 11.2625C13.4981 10.5431 13.8059 9.7318 13.9332 8.88334C14.0606 8.03488 14.0045 7.16897 13.7687 6.34404C13.7356 6.24767 13.7225 6.14556 13.7301 6.04394C13.7377 5.94233 13.7659 5.84332 13.813 5.75296C13.8601 5.66259 13.9251 5.58276 14.0041 5.51832C14.083 5.45388 14.1742 5.40618 14.2722 5.37812C14.3702 5.35006 14.4728 5.34224 14.5739 5.35511C14.675 5.36799 14.7724 5.40131 14.8602 5.45304C14.948 5.50477 15.0243 5.57382 15.0846 5.656C15.1449 5.73817 15.1878 5.83176 15.2107 5.93104C15.6672 7.52857 15.5805 9.23245 14.9642 10.7754C14.3478 12.3183 13.2367 13.613 11.8051 14.4563C10.3736 15.2995 8.70254 15.6437 7.05425 15.4348C5.40596 15.2259 3.87364 14.4758 2.6977 13.302C1.52304 12.1264 0.772076 10.5939 0.562705 8.94526C0.353333 7.29658 0.697413 5.62506 1.54092 4.19312C2.38443 2.76118 3.67961 1.64991 5.2231 1.03378C6.76659 0.417663 8.47099 0.331577 10.0687 0.789044C10.2589 0.844656 10.4194 0.973312 10.5151 1.1469C10.6108 1.32048 10.6339 1.52488 10.5793 1.71542C10.5247 1.90596 10.3969 2.06716 10.2239 2.16377C10.0508 2.26039 9.84654 2.28458 9.6557 2.23104C8.76227 1.97449 7.82145 1.92903 6.90745 2.09824C5.99345 2.26746 5.13126 2.64672 4.38889 3.20611C3.64653 3.76551 3.04428 4.48974 2.62966 5.32168C2.21504 6.15361 1.99938 7.07051 1.9997 8.00004Z" fill="#EE920F"/>
<path d="M5.00048 7.99999C5.00054 8.54658 5.14983 9.08278 5.43224 9.55075C5.71466 10.0187 6.11948 10.4007 6.60305 10.6555C7.08662 10.9103 7.63057 11.0283 8.17625 10.9966C8.72192 10.965 9.2486 10.785 9.69948 10.476C10.1503 10.1662 10.5078 9.73912 10.7334 9.24085C10.959 8.74258 11.0441 8.19212 10.9795 7.64899C10.962 7.51719 10.98 7.38311 11.0315 7.26056C11.0831 7.13802 11.1664 7.03143 11.2728 6.95177C11.3793 6.87211 11.505 6.82226 11.6371 6.80736C11.7693 6.79246 11.903 6.81304 12.0245 6.86699C12.146 6.92023 12.2512 7.00474 12.3293 7.1119C12.4075 7.21906 12.4559 7.34504 12.4695 7.47699C12.5781 8.40509 12.3952 9.34399 11.946 10.1634C11.4968 10.9828 10.8037 11.642 9.96282 12.0496C9.12196 12.4572 8.17507 12.5929 7.25357 12.4379C6.33208 12.2829 5.48169 11.8449 4.82044 11.1846C4.15919 10.5244 3.71988 9.67468 3.56348 8.75342C3.40708 7.83216 3.54136 6.88507 3.94766 6.04358C4.35397 5.2021 5.01216 4.50798 5.83087 4.05755C6.64959 3.60712 7.58821 3.42274 8.51648 3.52999C8.61587 3.53921 8.71243 3.56818 8.80048 3.6152C8.88853 3.66222 8.96631 3.72635 9.02926 3.80382C9.09221 3.88129 9.13906 3.97055 9.16707 4.06636C9.19507 4.16218 9.20367 4.26262 9.19235 4.3618C9.18104 4.46097 9.15004 4.5569 9.10117 4.64394C9.0523 4.73098 8.98655 4.80739 8.90777 4.86869C8.82899 4.93 8.73876 4.97495 8.64238 5.00093C8.54599 5.02691 8.4454 5.03339 8.34648 5.01999C7.92614 4.97118 7.50022 5.01185 7.09671 5.13933C6.69321 5.26681 6.32123 5.47822 6.00523 5.75966C5.68922 6.0411 5.43633 6.38621 5.26316 6.77233C5.09 7.15844 5.00048 7.57682 5.00048 7.99999Z" fill="#EE920F"/>
</g>
<defs>
<clipPath id="clip0_126_111">
<rect width="16" height="16" fill="white"/>
</clipPath>
</defs>
</svg>
