<svg width="11" height="10" viewBox="0 0 11 10" fill="none" xmlns="http://www.w3.org/2000/svg">
<path d="M8.3875 0H2.6125C1.91962 0 1.25512 0.264467 0.765184 0.735221C0.275245 1.20598 0 1.84445 0 2.5102V7.26637C0 7.59602 0.0675743 7.92243 0.198865 8.22698C0.330155 8.53154 0.52259 8.80826 0.765184 9.04135C1.25512 9.51211 1.91962 9.77657 2.6125 9.77657H8.3875C9.07993 9.77518 9.74359 9.51026 10.2332 9.03981C10.7228 8.56936 10.9985 7.93169 11 7.26637V2.5102C10.9985 1.84488 10.7228 1.20721 10.2332 0.736763C9.74359 0.266311 9.07993 0.00139626 8.3875 0ZM6.38 4.39682C6.1094 4.5451 5.80326 4.62308 5.49175 4.62308C5.18024 4.62308 4.8741 4.5451 4.6035 4.39682L0.836 2.31995C0.884715 1.89999 1.09285 1.51201 1.4206 1.23024C1.74835 0.948477 2.17271 0.792695 2.6125 0.792695H8.3875C8.82695 0.793853 9.25065 0.950036 9.57815 1.23158C9.90564 1.51313 10.1141 1.90044 10.164 2.31995L6.38 4.39682Z" fill="#2B2929"/>
</svg>
