<svg width="21" height="21" viewBox="0 0 21 21" fill="none" xmlns="http://www.w3.org/2000/svg">
<path d="M1.79384 11.375H6.58622C6.73595 14.146 7.6192 16.8275 9.14559 19.145C7.2335 18.8449 5.47478 17.9195 4.14445 16.5137C2.81412 15.1078 1.98807 13.3007 1.79384 11.375ZM1.79297 9.625C1.98696 7.69923 2.81369 5.89205 4.14386 4.48604C5.47403 3.08004 7.23265 2.15449 9.14472 1.85413C7.61832 4.17166 6.73507 6.85313 6.58534 9.62413L1.79297 9.625ZM19.2055 9.625H14.4131C14.2635 6.8537 13.3803 4.17191 11.8537 1.85413C13.7658 2.15427 15.5245 3.07961 16.8549 4.48546C18.1852 5.89131 19.0121 7.69839 19.2063 9.62413M19.2063 11.3741C19.0122 13.2997 18.1854 15.1067 16.8552 16.5126C15.525 17.9184 13.7665 18.8438 11.8546 19.1441C13.3808 16.8268 14.2641 14.1457 14.414 11.375L19.2063 11.3741ZM8.33884 11.375H12.6613C12.5176 13.7371 11.7738 16.0235 10.5001 18.018C9.22642 16.0235 8.48256 13.7371 8.33884 11.375ZM8.33884 9.625C8.48256 7.26289 9.22642 4.97649 10.5001 2.982C11.7738 4.97649 12.5176 7.26289 12.6613 9.625H8.33884Z" fill="#EE920F"/>
</svg>
