<svg width="30" height="30" viewBox="0 0 30 30" fill="none" xmlns="http://www.w3.org/2000/svg">
<path fill-rule="evenodd" clip-rule="evenodd" d="M2.53516 14.0625C2.77163 10.9184 4.18752 7.97985 6.49911 5.83563C8.81069 3.69141 11.8472 2.49995 15.0002 2.5C13.9627 2.5 13.0377 2.955 12.2752 3.65125C11.5189 4.34375 10.8802 5.31125 10.3627 6.45375C9.84266 7.60375 9.43766 8.94875 9.16391 10.4075C8.94188 11.6144 8.80902 12.8361 8.76641 14.0625H2.53516ZM2.53516 15.9375H8.76641C8.81141 17.19 8.94516 18.4225 9.16391 19.5925C9.43891 21.0513 9.84266 22.3962 10.3627 23.5462C10.8802 24.6887 11.5189 25.6562 12.2752 26.3488C13.0377 27.045 13.9627 27.5 15.0002 27.5C8.41266 27.5 3.01391 22.4037 2.53516 15.9375Z" fill="white"/>
<path d="M15.0009 4.24377C14.6572 4.24377 14.2134 4.39002 13.6972 4.86252C13.1772 5.33877 12.6559 6.08502 12.1959 7.10127C11.7384 8.11127 11.3672 9.33002 11.1122 10.6925C10.9122 11.765 10.7872 12.9025 10.7422 14.0625H19.2597C19.219 12.9317 19.0953 11.8053 18.8897 10.6925C18.6347 9.33002 18.2647 8.11127 17.8059 7.10127C17.3459 6.08502 16.8259 5.33877 16.3059 4.86377C15.7884 4.39002 15.3447 4.24377 15.0009 4.24377ZM11.1122 19.3075C11.3672 20.67 11.7384 21.8888 12.1959 22.8988C12.6559 23.915 13.1772 24.6613 13.6959 25.1363C14.2134 25.61 14.6584 25.7563 15.0009 25.7563C15.3447 25.7563 15.7884 25.61 16.3047 25.1375C16.8259 24.6613 17.3459 23.915 17.8059 22.8988C18.2634 21.8888 18.6347 20.67 18.8897 19.3075C19.0909 18.235 19.2159 17.0975 19.2597 15.9375H10.7422C10.7859 17.0975 10.9109 18.235 11.1122 19.3075Z" fill="white"/>
<path d="M15 2.5C16.0387 2.5 16.9625 2.955 17.725 3.65125C18.4813 4.34375 19.1213 5.31125 19.6375 6.45375C20.1588 7.60375 20.5625 8.94875 20.8363 10.4075C21.055 11.5775 21.1887 12.81 21.2337 14.0625H27.465C27.2285 10.9184 25.8126 7.97985 23.5011 5.83563C21.1895 3.69141 18.153 2.49995 15 2.5ZM20.8363 19.5925C20.5625 21.0513 20.1588 22.3962 19.6375 23.5462C19.1213 24.6887 18.4813 25.6562 17.725 26.3488C16.9625 27.045 16.0387 27.5 15 27.5C21.5875 27.5 26.9862 22.4037 27.465 15.9375H21.2337C21.1911 17.1639 21.0583 18.3856 20.8363 19.5925Z" fill="white"/>
</svg>
