<svg width="31" height="27" viewBox="0 0 31 27" fill="none" xmlns="http://www.w3.org/2000/svg">
<path d="M6.23444 11.685C8.71444 15.93 12.71 19.41 17.5839 21.57L21.3728 18.27C21.855 17.85 22.5267 17.73 23.1294 17.895C25.0583 18.45 27.125 18.75 29.2778 18.75C29.7345 18.75 30.1726 18.908 30.4956 19.1893C30.8186 19.4706 31 19.8522 31 20.25V25.5C31 25.8978 30.8186 26.2794 30.4956 26.5607C30.1726 26.842 29.7345 27 29.2778 27C21.5128 27 14.0659 24.3134 8.57526 19.5312C3.08461 14.749 0 8.26302 0 1.5C0 1.10218 0.181448 0.720644 0.504427 0.43934C0.827406 0.158035 1.26546 0 1.72222 0H7.75C8.20676 0 8.64481 0.158035 8.96779 0.43934C9.29077 0.720644 9.47222 1.10218 9.47222 1.5C9.47222 3.375 9.81667 5.175 10.4539 6.855C10.6433 7.38 10.5056 7.965 10.0233 8.385L6.23444 11.685Z" fill="white"/>
</svg>
