<svg width="13" height="13" viewBox="0 0 13 13" fill="none" xmlns="http://www.w3.org/2000/svg">
<path d="M6.08334 12.3958C5.93056 12.2431 5.85056 12.0486 5.84334 11.8125C5.83611 11.5764 5.90917 11.3819 6.0625 11.2292L10.1458 7.14583H0.833336C0.597225 7.14583 0.39917 7.06583 0.23917 6.90583C0.0791697 6.74583 -0.000552672 6.54806 2.8835e-06 6.3125C2.8835e-06 6.07639 0.080003 5.87833 0.240003 5.71833C0.400003 5.55833 0.597781 5.47861 0.833336 5.47917H10.1458L6.0625 1.39583C5.90972 1.24306 5.83667 1.04861 5.84334 0.8125C5.85 0.576389 5.93 0.381944 6.08334 0.229166C6.23611 0.0763886 6.43056 0 6.66667 0C6.90278 0 7.09723 0.0763886 7.25 0.229166L12.75 5.72917C12.8333 5.79861 12.8925 5.88556 12.9275 5.99C12.9625 6.09444 12.9797 6.20194 12.9792 6.3125C12.9792 6.42361 12.9619 6.52778 12.9275 6.625C12.8931 6.72222 12.8339 6.8125 12.75 6.89583L7.25 12.3958C7.09723 12.5486 6.90278 12.625 6.66667 12.625C6.43056 12.625 6.23611 12.5486 6.08334 12.3958Z" fill="white"/>
</svg>
