<svg width="48" height="48" viewBox="0 0 48 48" fill="none" xmlns="http://www.w3.org/2000/svg">
<g clip-path="url(#clip0_117_171)">
<path d="M44.9963 13.4115C44.9963 13.4453 44.9963 13.4876 44.9875 13.5129C44.9434 13.8426 44.9434 14.1723 44.9698 14.5105C44.9875 14.595 45.0051 14.6795 45.0756 14.7472C45.19 14.874 45.3662 14.8486 45.4367 14.6964C45.4719 14.6204 45.4719 14.5443 45.4543 14.4682C45.3662 14.147 45.3486 13.8088 45.3398 13.4791C45.3398 13.4622 45.3398 13.4369 45.3398 13.4115C45.4367 13.4031 45.5248 13.3946 45.604 13.3946C45.6657 13.3861 45.7185 13.3777 45.7626 13.3523C45.8946 13.2847 45.8946 13.141 45.7537 13.0734C45.7009 13.048 45.6304 13.0396 45.5688 13.0396C45.3486 13.048 45.1284 13.048 44.9082 13.048C44.829 13.048 44.7497 13.0565 44.6704 13.0649C44.6263 13.0734 44.5735 13.0734 44.5383 13.0987C44.4766 13.1241 44.4414 13.1664 44.4414 13.2255C44.4502 13.2847 44.4766 13.3185 44.5383 13.3439C44.5735 13.3692 44.6175 13.3777 44.6616 13.3777C44.7672 13.3861 44.8818 13.4031 44.9963 13.4115ZM47.4184 13.8004C47.4184 13.8088 47.4272 13.8173 47.4272 13.8173C47.4624 14.0455 47.4977 14.2653 47.5241 14.4851C47.5329 14.5612 47.5417 14.6288 47.5946 14.688C47.709 14.8317 47.8852 14.8148 47.9645 14.6626C47.9997 14.5865 48.0085 14.5105 47.9909 14.4259C47.9381 14.1723 47.9116 13.9187 47.8588 13.6736C47.8235 13.5214 47.7795 13.3777 47.7355 13.2424C47.709 13.1579 47.6474 13.0987 47.5417 13.0903C47.436 13.0734 47.3567 13.1241 47.3127 13.2002C47.2599 13.2678 47.2158 13.3354 47.1806 13.4115C47.1189 13.5468 47.0661 13.682 46.9957 13.8088C46.9868 13.8426 46.978 13.868 46.9604 13.8934C46.9516 13.8764 46.9428 13.868 46.9428 13.868C46.8283 13.6567 46.7226 13.4453 46.6081 13.2424C46.5904 13.2255 46.5817 13.2086 46.5729 13.1917C46.52 13.1156 46.4584 13.0734 46.3615 13.0734C46.2734 13.0818 46.2029 13.1325 46.1589 13.2086C46.1413 13.2424 46.1413 13.2678 46.1325 13.3016C46.0972 13.5721 46.0532 13.8426 46.018 14.1131C46.0003 14.2653 45.9915 14.4175 45.9915 14.5696C45.9827 14.6034 45.9915 14.6457 46.0091 14.6795C46.0268 14.7471 46.0796 14.7894 46.1501 14.7979C46.2381 14.8063 46.2998 14.781 46.3262 14.7133C46.3526 14.6626 46.3615 14.6204 46.3703 14.5781C46.4055 14.4259 46.4319 14.2822 46.4584 14.1385C46.476 14.054 46.4848 13.9863 46.5112 13.8934C46.5288 13.9272 46.5464 13.9525 46.5641 13.9779C46.6433 14.0793 46.7226 14.1808 46.8195 14.2653C46.9164 14.3329 46.9957 14.3245 47.0749 14.2484C47.0925 14.2315 47.1013 14.223 47.1189 14.2061C47.1982 14.0878 47.2951 13.9694 47.3743 13.8511C47.392 13.8342 47.4008 13.8173 47.4184 13.8004Z" fill="#3A3B7B"/>
<path d="M27.1247 13.5776C27.0634 13.7383 27.0518 13.854 27.08 13.9502C27.1113 14.081 27.1923 14.1238 27.3023 14.0906C28.3368 13.845 30.6054 14.542 31.4453 14.7362C31.6433 14.777 31.8045 14.5316 31.6693 14.3115C31.472 14.0985 29.2045 13.1862 28.3393 13.1364C28.0002 13.118 27.3939 13.0346 27.1247 13.5776Z" fill="#3A3B7B"/>
<path d="M35.9906 10.6244C36.1008 10.6854 36.1625 10.7437 36.1929 10.8088C36.2382 10.8942 36.2143 10.9533 36.1382 10.9834C35.4543 11.3037 34.5443 12.6828 34.177 13.1585C34.088 13.2679 33.8826 13.2043 33.8516 13.0244C33.8579 12.8209 34.6646 11.3243 35.1148 10.9167C35.2917 10.7575 35.584 10.4453 35.9906 10.6244Z" fill="#3A3B7B"/>
<path d="M30.544 9.94553C30.6764 9.84971 30.8141 9.81614 30.8844 9.87841C31.9162 10.7253 32.4633 12.0664 32.8021 13.2942C32.8149 13.3228 32.8157 13.3639 32.8055 13.4067C32.8012 13.4433 32.7734 13.482 32.7291 13.5119C32.6819 13.5449 32.6412 13.555 32.622 13.5265C32.1698 12.9362 29.5871 10.6393 30.544 9.94553Z" fill="#3A3B7B"/>
<path d="M8.69524 24.6286C8.94253 24.4519 9.21137 24.3048 9.49586 24.1906C9.7935 24.109 10.1107 24.1225 10.3997 24.2293C10.6885 24.336 10.9334 24.5301 11.0971 24.7823C11.2435 25.0338 11.3008 25.3242 11.2604 25.6097C11.2199 25.8952 11.084 26.1603 10.8729 26.3652C10.7093 26.5313 10.5235 26.676 10.3205 26.7956C9.41582 27.3565 8.50308 27.8867 7.59039 28.4476C7.40363 28.588 7.20551 28.714 6.99793 28.8242C6.68217 28.9753 6.32132 29.0158 5.97776 28.9386C5.6342 28.8615 5.32955 28.6715 5.11648 28.4016C4.95719 28.2104 4.82277 28.0014 4.71616 27.7791C3.8515 26.0348 2.95481 24.2982 2.12217 22.5231C1.73787 21.7548 1.42563 20.8711 1.12139 20.0181C0.989767 19.7703 0.964063 19.483 1.04976 19.2173C1.13545 18.9515 1.32577 18.7284 1.58025 18.5952C1.83473 18.4621 2.13327 18.4295 2.4124 18.5044C2.69152 18.5793 2.92921 18.7557 3.0749 18.9961C3.52271 19.5673 3.91911 20.174 4.25981 20.8096C5.12448 22.3464 5.94912 23.8832 6.78176 25.374C6.83024 25.4564 6.8837 25.5358 6.94188 25.6122C7.56859 25.3593 8.15803 25.0286 8.69524 24.6286Z" fill="#3A3B7B"/>
<path d="M17.6352 24.0925C15.6577 26.3132 12.3432 25.7522 10.6779 22.8937C9.49295 20.8651 9.28481 17.5148 11.8628 15.4017C12.4133 14.9593 13.0716 14.6579 13.7763 14.5257C14.6403 14.4068 15.5213 14.5531 16.2935 14.9437C17.0656 15.3342 17.6894 15.9491 18.0756 16.7003C19.4847 19.1592 19.2845 22.2943 17.6352 24.0925ZM16.8346 18.9133C16.6245 18.3091 16.2031 17.7932 15.6417 17.4533C15.324 17.236 14.938 17.1304 14.5487 17.1542C14.1594 17.178 13.7905 17.3297 13.5041 17.584C12.3592 18.5599 12.119 20.8728 12.9516 22.2483C13.0578 22.4726 13.2136 22.6719 13.4084 22.8323C13.6032 22.9927 13.8321 23.1104 14.0792 23.1769C14.3263 23.2436 14.5855 23.2575 14.8389 23.2179C15.0922 23.1782 15.3334 23.086 15.5457 22.9475C16.1663 22.4857 16.6216 21.8498 16.8483 21.1282C17.075 20.4066 17.0618 19.6351 16.8107 18.921L16.8346 18.9133Z" fill="#3A3B7B"/>
<path d="M25.706 19.8816C25.5036 19.9234 25.2944 19.9259 25.0909 19.8889C24.8875 19.8519 24.6937 19.7763 24.5212 19.6665C24.3702 19.5836 24.2402 19.4696 24.1405 19.3327C24.041 19.1958 23.9742 19.0395 23.9451 18.8748C23.916 18.7103 23.9253 18.5415 23.9723 18.3808C24.0193 18.22 24.1029 18.0713 24.2169 17.9452C24.4157 17.6918 24.6978 17.5105 25.0175 17.4304C25.8523 17.1978 26.7117 17.0561 27.5795 17.0078C27.7702 16.9865 27.9634 17.002 28.1477 17.0533C28.332 17.1047 28.5038 17.1909 28.653 17.3069C28.8021 17.4228 28.9257 17.5662 29.0163 17.7286C29.1069 17.891 29.1628 18.0692 29.1807 18.2526C29.4309 19.1536 29.4583 20.0982 29.2608 21.0112C28.5403 23.9619 26.0583 24.9762 23.2722 24.031C22.4901 23.7783 21.8044 23.3075 21.3027 22.6786C20.6335 21.9214 20.1591 21.0239 19.9176 20.0584C19.7219 19.1986 19.7433 18.3064 19.9801 17.4563C20.2169 16.6061 20.6621 15.8226 21.2786 15.1712C21.8637 14.4633 22.6231 13.9061 23.4884 13.5499C24.0351 13.2606 24.6749 13.1784 25.2818 13.3194C25.4194 13.3559 25.5443 13.4272 25.6436 13.5257C25.743 13.6243 25.813 13.7465 25.8465 13.8798C25.88 14.013 25.8757 14.1525 25.8341 14.2836C25.7925 14.4148 25.7152 14.5329 25.61 14.6257C25.4101 14.7994 25.1929 14.9538 24.9615 15.0867C24.2497 15.5218 23.6303 16.0823 23.1361 16.7388C22.8121 17.1636 22.589 17.6514 22.4825 18.1678C22.3759 18.6842 22.3886 19.2167 22.5196 19.728C22.7012 20.425 23.1041 21.0507 23.6725 21.5183C25.4338 23.0552 27.7236 21.5721 27.3233 19.4743C26.7389 19.6127 26.2265 19.7587 25.706 19.8816Z" fill="#3A3B7B"/>
<path d="M36.4656 24.2154C33.8637 25.7523 30.9014 24.2154 30.2528 20.9881C29.7805 18.6829 30.6772 15.4556 33.8156 14.2261C34.4834 13.9701 35.2077 13.8803 35.9212 13.9648C36.7786 14.1155 37.5651 14.5206 38.1698 15.123C38.7745 15.7255 39.167 16.4949 39.2918 17.3228C39.8202 20.066 38.6193 22.9937 36.4656 24.2154ZM37.3704 19.044C37.3696 18.4057 37.1343 17.788 36.7059 17.2997C36.4769 16.9977 36.1458 16.7814 35.7691 16.6874C35.3924 16.5936 34.9935 16.628 34.6402 16.7849C33.2312 17.3689 32.2384 19.4897 32.5987 21.0496C32.6262 21.2944 32.7091 21.5305 32.8415 21.7414C32.974 21.9522 33.1529 22.1327 33.3657 22.2703C33.5784 22.4079 33.8199 22.4992 34.0732 22.5379C34.3266 22.5766 34.5857 22.5617 34.8324 22.4942C35.5772 22.2445 36.2221 21.7778 36.6771 21.1592C37.1321 20.5407 37.3745 19.8012 37.3704 19.044Z" fill="#3A3B7B"/>
<path d="M41.9237 24.8609C41.8844 25.1421 41.7304 25.3969 41.4954 25.5691C41.2604 25.7413 40.9637 25.8169 40.6707 25.7792C40.3777 25.7415 40.1123 25.5936 39.9329 25.368C39.7534 25.1425 39.6747 24.8578 39.714 24.5766C39.7533 24.2953 39.9074 24.0406 40.1423 23.8684C40.3773 23.6962 40.6739 23.6206 40.9669 23.6583C41.26 23.696 41.5254 23.8439 41.7048 24.0694C41.8842 24.295 41.963 24.5797 41.9237 24.8609ZM41.2271 14.495C41.3794 14.2718 41.6028 14.1018 41.864 14.0104C42.1251 13.919 42.41 13.9111 42.6763 13.9878C42.9469 14.0528 43.186 14.2051 43.3537 14.4191C43.5213 14.6331 43.6071 14.8959 43.597 15.1635C43.5617 15.5927 43.4948 16.0189 43.3968 16.4391C43.1326 17.8606 42.8764 19.2822 42.5962 20.6884C42.4681 21.2494 42.3 21.7872 42.1158 22.3558C42.0518 22.5336 41.9447 22.6942 41.8036 22.8246C41.7159 22.9227 41.6038 22.9979 41.4777 23.0433C41.3516 23.0888 41.2156 23.1029 41.0824 23.0845C40.9491 23.0661 40.8227 23.0158 40.7151 22.9381C40.6075 22.8604 40.522 22.758 40.4666 22.6402C40.3714 22.4289 40.3197 22.2018 40.3144 21.9717C40.3144 21.0188 40.3144 20.0583 40.3785 19.0978C40.4873 17.727 40.7014 16.3657 41.019 15.0252C41.0564 14.8456 41.1268 14.6738 41.2271 14.518V14.495Z" fill="#3A3B7B"/>
<path fill-rule="evenodd" clip-rule="evenodd" d="M5.31239 31.0357C5.21786 31.2383 5.19193 31.4641 5.23813 31.6814C5.26886 31.9678 5.33636 32.2496 5.43909 32.5202C5.56734 32.8516 5.71086 33.1793 5.88782 33.5832C5.92852 33.6761 5.97105 33.7731 6.01555 33.8752C6.25419 34.4224 6.55362 35.1217 6.95302 36.1337C7.06607 36.4212 7.16645 36.7111 7.26754 37.003C7.30838 37.1209 7.34936 37.2392 7.39131 37.3577C7.54169 37.7793 7.80043 38.158 8.14339 38.4582C8.28903 38.6231 8.4822 38.7434 8.6988 38.8035C8.91963 38.8648 9.1545 38.8609 9.37298 38.7923C9.59146 38.7237 9.78336 38.5936 9.92375 38.4189C10.0614 38.2476 10.1432 38.0412 10.1592 37.8255C10.2485 37.4054 10.218 36.9698 10.0708 36.5648C9.83721 35.8923 9.57112 35.2189 9.26428 34.5602L9.26287 34.5573C8.75809 33.5267 8.24498 32.5033 7.7076 31.4794L7.70357 31.4723C7.54626 31.2055 7.34181 30.9671 7.09943 30.7676C6.94207 30.5896 6.72502 30.4695 6.48532 30.4281C6.24051 30.3859 5.98803 30.4285 5.77294 30.5483C5.56947 30.6599 5.40818 30.8305 5.31239 31.0357Z" fill="#3A3B7B"/>
<path fill-rule="evenodd" clip-rule="evenodd" d="M13.0224 28.4981C12.2309 28.3014 11.4043 28.2727 10.6002 28.4142C9.97737 28.473 9.36482 28.6109 8.93947 28.884C8.72314 29.023 8.54823 29.2015 8.45094 29.4284C8.35311 29.6565 8.34063 29.9173 8.42079 30.208C8.56717 30.7404 8.75725 31.2581 8.94666 31.7741L8.97734 31.8576L8.97808 31.8595C9.54839 33.3585 10.1241 34.8525 10.7051 36.3413C10.7729 36.5759 10.8687 36.8023 10.9906 37.0158L10.9929 37.0197C11.154 37.2849 11.3606 37.5221 11.604 37.7214C11.7257 37.8309 11.8762 37.9067 12.0395 37.9406C12.2043 37.9747 12.3757 37.9648 12.535 37.9119C12.6944 37.8589 12.8356 37.765 12.9431 37.6403C13.049 37.5176 13.1182 37.3699 13.1437 37.2126C13.2487 36.7854 13.2151 36.3375 13.0472 35.9292C12.9948 35.7918 12.9537 35.6513 12.9104 35.5035C12.896 35.4542 12.8814 35.404 12.8659 35.3529C14.1958 34.854 15.6109 34.1831 16.1085 32.6224C16.3033 32.083 16.3195 31.499 16.1549 30.9504C15.9901 30.4012 15.6521 29.9144 15.1873 29.557C14.5548 29.0568 13.8159 28.6953 13.0224 28.4981ZM10.8285 30.4125C10.8547 30.4052 10.881 30.3985 10.9075 30.3922C11.7733 30.2616 12.6591 30.4357 13.4019 30.8823C13.7292 31.1007 13.8633 31.3435 13.8863 31.5771C13.9101 31.8176 13.8189 32.0782 13.6359 32.3287C13.2901 32.8019 12.6589 33.1807 12.0888 33.2513C11.6732 32.3326 11.2511 31.3768 10.8285 30.4125Z" fill="#3A3B7B"/>
<path d="M18.2989 26.8165C19.2414 26.3988 20.409 26.3266 21.3226 26.6203C21.5527 26.6847 21.7523 26.8238 21.8873 27.0139C22.0215 27.2029 22.0834 27.4306 22.0627 27.6583C22.0613 27.806 22.0235 27.9514 21.9524 28.0826C21.8801 28.2161 21.7752 28.3309 21.6469 28.4174C21.5185 28.5038 21.3703 28.5594 21.2149 28.5792C21.0594 28.5991 20.9012 28.5828 20.7537 28.5316L20.7425 28.5277L20.732 28.5223C20.6565 28.4844 20.5763 28.4559 20.4934 28.4373L20.4882 28.4362C19.8455 28.2724 19.2393 28.5438 19.0178 28.8774C18.9122 29.0364 18.8991 29.197 18.9871 29.343C19.0813 29.4994 19.3123 29.675 19.7798 29.8001C19.9084 29.8339 20.0402 29.8666 20.1739 29.8998C20.5436 29.9917 20.9278 30.0872 21.2993 30.2194L21.3007 30.22C23.0146 30.8458 23.6528 32.1421 23.4343 33.3613C23.2181 34.5669 22.169 35.6642 20.5914 35.923C20.0173 36.0451 19.4199 36.0213 18.8582 35.854C18.2952 35.6861 17.7876 35.3799 17.386 34.9654L17.3756 34.9546C17.2488 34.7985 17.1635 34.615 17.1257 34.4204C17.091 34.2448 17.1093 34.0633 17.1784 33.8972C17.2472 33.7322 17.3635 33.5894 17.5136 33.4853C17.6721 33.3673 17.8632 33.2965 18.0632 33.2818C18.2625 33.2671 18.462 33.3087 18.6371 33.4013C18.8119 33.4824 18.9745 33.5858 19.1205 33.7088L19.1232 33.711C19.3815 33.9377 19.6939 33.9968 19.9935 33.942C20.2974 33.8866 20.5833 33.7139 20.7671 33.4849C20.9497 33.2573 21.023 32.987 20.936 32.7245C20.8485 32.4601 20.5852 32.164 20.0068 31.9163C19.8556 31.8547 19.6988 31.805 19.5357 31.7566C19.4917 31.7436 19.447 31.7306 19.4017 31.7174C19.2812 31.6823 19.1571 31.6461 19.0354 31.6062C18.9516 31.5788 18.8685 31.5528 18.7862 31.5271C18.5612 31.4567 18.3418 31.3882 18.1307 31.2963C17.6713 31.1461 17.2743 30.8578 16.999 30.474C16.7225 30.0887 16.5834 29.628 16.6023 29.1605C16.6038 28.0214 17.3513 27.2367 18.2989 26.8165Z" fill="#3A3B7B"/>
<path d="M30.2489 26.6953C30.0661 26.6096 29.864 26.5689 29.6608 26.5769C29.4576 26.585 29.2597 26.6414 29.0849 26.7412C28.9112 26.8403 28.7658 26.9792 28.6616 27.1453C28.566 27.2852 28.4999 27.4417 28.4669 27.606C28.4339 27.7702 28.4347 27.9389 28.4692 28.1027C28.5032 28.3132 28.541 28.5179 28.5782 28.7198C28.6399 29.0539 28.7 29.3805 28.7396 29.7135L28.741 29.7219C28.8312 30.2441 28.8784 30.7722 28.8827 31.3015L28.8831 31.309C28.9139 31.8805 28.711 32.441 28.3178 32.8714L28.3116 32.879C28.1837 33.0363 28.0127 33.1564 27.8176 33.2258C27.6226 33.2952 27.4114 33.3112 27.2075 33.2719C27.0036 33.2326 26.8151 33.1397 26.6631 33.0034C26.5111 32.8672 26.4015 32.6925 26.3467 32.5C26.2299 32.0942 26.1623 31.6768 26.1451 31.2562L26.3447 28.207C26.3476 28.1672 26.351 28.1264 26.3544 28.0851C26.362 27.9925 26.3698 27.8982 26.373 27.8102C26.3777 27.6808 26.3737 27.5476 26.3422 27.4216C26.3101 27.2928 26.2489 27.1703 26.1404 27.066C26.033 26.9627 25.8879 26.8865 25.7055 26.8346C25.3754 26.7429 25.0964 26.7458 24.8639 26.8405C24.6312 26.9353 24.4718 27.1111 24.359 27.3142C24.2471 27.5157 24.1752 27.7541 24.1208 27.993C24.0805 28.1702 24.048 28.3563 24.0172 28.5334C24.0065 28.5944 23.9961 28.6543 23.9856 28.7125L23.9853 28.7142C23.8204 29.6854 23.7713 30.6716 23.839 31.6535C23.8516 32.1841 23.9669 32.7079 24.1791 33.1981C24.4185 33.8305 24.852 34.3785 25.4225 34.7697C25.9942 35.1616 26.6765 35.3776 27.3789 35.389C28.0814 35.4004 28.7709 35.2067 29.3561 34.8336C29.9404 34.461 30.3932 33.927 30.6546 33.3023C31.0203 32.5064 31.1921 31.6409 31.1566 30.7717C31.1352 30.1371 31.0992 29.4977 31.0634 28.8615C31.0458 28.5494 31.0283 28.238 31.0126 27.9284C31.0046 27.6181 30.898 27.3175 30.7069 27.0669C30.5887 26.9086 30.4313 26.7808 30.2489 26.6953Z" fill="#3A3B7B"/>
<path d="M36.7175 31.4764C36.699 31.499 36.6794 31.5224 36.659 31.5467C36.5104 30.7236 36.3726 29.9008 36.2346 29.0768C36.1851 28.7811 36.1354 28.4842 36.0853 28.1881L36.0797 28.1551L36.0614 28.1266C36.027 28.0728 36.0236 28.0202 36.0236 27.9079V27.8949L36.0215 27.882C35.9842 27.6501 35.8748 27.4342 35.7079 27.2627C35.5413 27.0917 35.3251 26.9727 35.0872 26.921C34.8497 26.8648 34.6001 26.8772 34.3699 26.9567C34.1403 27.036 33.9401 27.1784 33.7944 27.3663C33.6733 27.5104 33.574 27.6703 33.4996 27.8412C33.3307 28.2092 33.1604 28.5782 32.9896 28.9481L32.9866 28.9545C32.5602 29.8781 32.1309 30.8079 31.7141 31.745L31.7128 31.748C31.4569 32.3556 31.2457 32.9958 31.0352 33.6341C30.9932 33.7615 30.9511 33.8889 30.9088 34.0159C30.8328 34.2173 30.7995 34.4312 30.8109 34.6451C30.7971 34.8366 30.8448 35.0276 30.9478 35.1923C31.0528 35.3603 31.2102 35.4926 31.3976 35.5704C31.5962 35.654 31.8182 35.6717 32.0286 35.6208C32.2385 35.57 32.4248 35.4537 32.5584 35.2903C32.7289 35.0889 32.8756 34.8693 32.9953 34.6367C33.3484 33.9434 33.6859 33.2418 34.0218 32.5431C34.1518 32.2729 34.2781 32.0309 34.4217 31.7673C34.4316 31.7998 34.4417 31.8315 34.4521 31.8633C34.6027 32.4996 34.8569 33.1091 35.2053 33.6695C35.2712 33.7882 35.3631 33.8919 35.4745 33.9736C35.5873 34.0563 35.7175 34.1143 35.856 34.1437C35.9946 34.1732 36.1381 34.1733 36.2767 34.1441C36.4151 34.115 36.5457 34.0569 36.6585 33.9747L36.8819 33.8142L38.6158 32.4125L38.5132 33.0396C38.3725 33.9016 38.2328 34.7565 38.0844 35.6115C37.9874 35.9905 37.9875 36.3863 38.0849 36.7652C38.127 36.9784 38.2344 37.1747 38.3934 37.329C38.5538 37.4847 38.7591 37.5904 38.9828 37.6326C39.2065 37.6747 39.4383 37.6513 39.648 37.5655C39.8547 37.4809 40.0305 37.3395 40.1533 37.1592C40.4392 36.8188 40.6171 36.4066 40.666 35.9718C40.7396 35.3578 40.8227 34.7355 40.9059 34.1133C41.0017 33.3961 41.0976 32.6792 41.1785 31.976L41.1787 31.9738C41.2566 31.204 41.2943 30.4311 41.2917 29.6578C41.3087 29.4134 41.2453 29.1699 41.1102 28.9618C40.9747 28.753 40.7739 28.5907 40.5366 28.4978C40.2898 28.3901 40.0135 28.3613 39.7484 28.4158C39.485 28.4698 39.2466 28.6031 39.0677 28.7961C38.7479 29.08 38.4479 29.3838 38.1696 29.7055L38.1677 29.7076C37.8639 30.071 37.5621 30.4415 37.2624 30.8096C37.0801 31.0333 36.8983 31.2566 36.7175 31.4764Z" fill="#3A3B7B"/>
</g>
<defs>
<clipPath id="clip0_117_171">
<rect width="47" height="29" fill="white" transform="translate(1 9.8468)"/>
</clipPath>
</defs>
</svg>
