<svg width="22" height="22" viewBox="0 0 22 22" fill="none" xmlns="http://www.w3.org/2000/svg">
<path d="M10.8114 17.1197V13.4127L10.0473 12.4745M12.8079 12.0335L11.8958 13.3059V17.1197M13.0861 17.4762V16.1929L14.3112 14.9678M8.75391 14.4173L9.43316 15.0966V17.4758" stroke="#EE920F" stroke-linecap="round" stroke-linejoin="round"/>
<path d="M8.69283 11.676C9.39476 11.676 9.96379 11.107 9.96379 10.4051C9.96379 9.70315 9.39476 9.13412 8.69283 9.13412C7.9909 9.13412 7.42188 9.70315 7.42188 10.4051C7.42188 11.107 7.9909 11.676 8.69283 11.676Z" stroke="#EE920F" stroke-linecap="round" stroke-linejoin="round"/>
<path d="M11.8713 9.52784C12.4431 9.52784 12.9067 9.06429 12.9067 8.49247C12.9067 7.92064 12.4431 7.45709 11.8713 7.45709C11.2995 7.45709 10.8359 7.92064 10.8359 8.49247C10.8359 9.06429 11.2995 9.52784 11.8713 9.52784Z" stroke="#EE920F" stroke-linecap="round" stroke-linejoin="round"/>
<path d="M11.88 6.5537C12.4404 6.5537 12.8947 6.09938 12.8947 5.53895C12.8947 4.97852 12.4404 4.5242 11.88 4.5242C11.3196 4.5242 10.8652 4.97852 10.8652 5.53895C10.8652 6.09938 11.3196 6.5537 11.88 6.5537Z" stroke="#EE920F" stroke-linecap="round" stroke-linejoin="round"/>
<path d="M15.8133 8.61024C16.0538 8.61024 16.2488 8.4153 16.2488 8.17483C16.2488 7.93435 16.0538 7.73941 15.8133 7.73941C15.5729 7.73941 15.3779 7.93435 15.3779 8.17483C15.3779 8.4153 15.5729 8.61024 15.8133 8.61024Z" stroke="#EE920F" stroke-linecap="round" stroke-linejoin="round"/>
<path d="M17.4184 10.3285C17.6748 10.3285 17.8827 10.1207 17.8827 9.86425C17.8827 9.60783 17.6748 9.39996 17.4184 9.39996C17.162 9.39996 16.9541 9.60783 16.9541 9.86425C16.9541 10.1207 17.162 10.3285 17.4184 10.3285Z" stroke="#EE920F" stroke-linecap="round" stroke-linejoin="round"/>
<path d="M18.8275 8.96134C19.093 8.96134 19.3083 8.74608 19.3083 8.48055C19.3083 8.21501 19.093 7.99976 18.8275 7.99976C18.5619 7.99976 18.3467 8.21501 18.3467 8.48055C18.3467 8.74608 18.5619 8.96134 18.8275 8.96134Z" stroke="#EE920F" stroke-linecap="round" stroke-linejoin="round"/>
<path d="M19.2761 12.4621C19.6416 12.4621 19.9379 12.1658 19.9379 11.8003C19.9379 11.4347 19.6416 11.1384 19.2761 11.1384C18.9106 11.1384 18.6143 11.4347 18.6143 11.8003C18.6143 12.1658 18.9106 12.4621 19.2761 12.4621Z" stroke="#EE920F" stroke-linecap="round" stroke-linejoin="round"/>
<path d="M15.8018 14.074C16.3422 14.074 16.7803 13.6359 16.7803 13.0955C16.7803 12.5551 16.3422 12.1169 15.8018 12.1169C15.2614 12.1169 14.8232 12.5551 14.8232 13.0955C14.8232 13.6359 15.2614 14.074 15.8018 14.074Z" stroke="#EE920F" stroke-linecap="round" stroke-linejoin="round"/>
<path d="M14.1851 11.3813C14.5645 11.3813 14.8721 11.0737 14.8721 10.6943C14.8721 10.3149 14.5645 10.0073 14.1851 10.0073C13.8056 10.0073 13.498 10.3149 13.498 10.6943C13.498 11.0737 13.8056 11.3813 14.1851 11.3813Z" stroke="#EE920F" stroke-linecap="round" stroke-linejoin="round"/>
<path d="M8.0183 6.86124C8.29699 6.86124 8.52292 6.63531 8.52292 6.35662C8.52292 6.07792 8.29699 5.85199 8.0183 5.85199C7.7396 5.85199 7.51367 6.07792 7.51367 6.35662C7.51367 6.63531 7.7396 6.86124 8.0183 6.86124Z" stroke="#EE920F" stroke-linecap="round" stroke-linejoin="round"/>
<path d="M5.56795 10.3198C6.0213 10.3198 6.38882 9.9523 6.38882 9.49895C6.38882 9.04559 6.0213 8.67807 5.56795 8.67807C5.11459 8.67807 4.74707 9.04559 4.74707 9.49895C4.74707 9.9523 5.11459 10.3198 5.56795 10.3198Z" stroke="#EE920F" stroke-linecap="round" stroke-linejoin="round"/>
<path d="M3.08379 9.66855C3.36198 9.66855 3.58749 9.44303 3.58749 9.16484C3.58749 8.88665 3.36198 8.66113 3.08379 8.66113C2.8056 8.66113 2.58008 8.88665 2.58008 9.16484C2.58008 9.44303 2.8056 9.66855 3.08379 9.66855Z" stroke="#EE920F" stroke-linecap="round" stroke-linejoin="round"/>
<path d="M3.20467 13.9462C3.83547 13.9462 4.34683 13.4348 4.34683 12.804C4.34683 12.1732 3.83547 11.6618 3.20467 11.6618C2.57387 11.6618 2.0625 12.1732 2.0625 12.804C2.0625 13.4348 2.57387 13.9462 3.20467 13.9462Z" stroke="#EE920F" stroke-linecap="round" stroke-linejoin="round"/>
<path d="M6.96672 15.0746C7.32642 15.0746 7.61801 14.783 7.61801 14.4233C7.61801 14.0636 7.32642 13.772 6.96672 13.772C6.60702 13.772 6.31543 14.0636 6.31543 14.4233C6.31543 14.783 6.60702 15.0746 6.96672 15.0746Z" stroke="#EE920F" stroke-linecap="round" stroke-linejoin="round"/>
<path d="M3.10059 9.66808L3.16659 11.6623M3.86875 11.875L5.09021 10.1667M3.58275 9.2322L4.75425 9.38987M4.25329 13.2555L6.3685 14.1657M5.79192 10.2887L6.78834 13.7967M7.22375 13.8247L8.19175 11.5725M7.47263 10.0512L6.35613 9.72766M6.07242 8.85179L7.70867 6.75491M8.10146 6.85437L8.48417 9.15108M9.78217 9.74966L10.9839 9.02641M10.9656 7.99012L8.46034 6.60137M10.8863 5.74933L8.51213 6.25212M11.8763 6.5537L11.8735 7.45662M12.7224 6.10408L15.4518 7.93283M12.903 8.40904L15.3798 8.20966M12.6211 9.20562L13.6881 10.2204M14.5585 10.1172L15.5773 8.54058M14.5695 11.264L15.256 12.2838M16.2396 12.2201L17.2099 10.2795M16.2483 8.17483L18.3489 8.43195M17.0981 9.52737L16.1131 8.49062M18.892 8.9572L19.1872 11.1439M17.7398 10.1993L18.8178 11.3222M16.719 12.7536L18.6555 12.0312" stroke="#EE920F" stroke-linecap="round" stroke-linejoin="round"/>
</svg>
