<svg width="21" height="22" viewBox="0 0 21 22" fill="none" xmlns="http://www.w3.org/2000/svg">
<path d="M10.5 8.43333C11.6139 8.43333 12.6822 7.98908 13.4698 7.1983C14.2575 6.40752 14.7 5.335 14.7 4.21667C14.7 3.09834 14.2575 2.02581 13.4698 1.23503C12.6822 0.444255 11.6139 0 10.5 0C9.38609 0 8.3178 0.444255 7.53015 1.23503C6.7425 2.02581 6.3 3.09834 6.3 4.21667C6.3 5.335 6.7425 6.40752 7.53015 7.1983C8.3178 7.98908 9.38609 8.43333 10.5 8.43333ZM3.675 11.5958C4.37119 11.5958 5.03887 11.3182 5.53116 10.8239C6.02344 10.3297 6.3 9.65937 6.3 8.96042C6.3 8.26146 6.02344 7.59113 5.53116 7.0969C5.03887 6.60266 4.37119 6.325 3.675 6.325C2.97881 6.325 2.31113 6.60266 1.81884 7.0969C1.32656 7.59113 1.05 8.26146 1.05 8.96042C1.05 9.65937 1.32656 10.3297 1.81884 10.8239C2.31113 11.3182 2.97881 11.5958 3.675 11.5958ZM19.95 8.96042C19.95 9.65937 19.6734 10.3297 19.1812 10.8239C18.6889 11.3182 18.0212 11.5958 17.325 11.5958C16.6288 11.5958 15.9611 11.3182 15.4688 10.8239C14.9766 10.3297 14.7 9.65937 14.7 8.96042C14.7 8.26146 14.9766 7.59113 15.4688 7.0969C15.9611 6.60266 16.6288 6.325 17.325 6.325C18.0212 6.325 18.6889 6.60266 19.1812 7.0969C19.6734 7.59113 19.95 8.26146 19.95 8.96042ZM10.5 9.4875C11.8924 9.4875 13.2277 10.0428 14.2123 11.0313C15.1969 12.0198 15.75 13.3604 15.75 14.7583V21.0833H5.25V14.7583C5.25 13.3604 5.80312 12.0198 6.78769 11.0313C7.77225 10.0428 9.10761 9.4875 10.5 9.4875ZM3.15 14.7583C3.15 14.0278 3.255 13.3226 3.4524 12.6563L3.2739 12.6711C2.37392 12.7703 1.5421 13.1995 0.937926 13.8765C0.333755 14.5535 -0.000234947 15.4306 1.24002e-07 16.3396V21.0833H3.15V14.7583ZM21 21.0833V16.3396C21.0001 15.3997 20.6429 14.4951 20.0013 13.8106C19.3597 13.1261 18.4821 12.7133 17.5476 12.6563C17.7439 13.3226 17.85 14.0278 17.85 14.7583V21.0833H21Z" fill="#EE920F"/>
</svg>
