<svg width="26" height="24" viewBox="0 0 26 24" fill="none" xmlns="http://www.w3.org/2000/svg">
<path fill-rule="evenodd" clip-rule="evenodd" d="M7.82419 0.664615L5.13953 4.30769C4.99873 4.49876 4.81615 4.65385 4.60625 4.76066C4.39636 4.86747 4.16491 4.92308 3.93023 4.92308H3.32558C2.44358 4.92308 1.59771 5.27967 0.97404 5.91441C0.350373 6.54915 0 7.41004 0 8.30769V20.6154C0 21.513 0.350373 22.3739 0.97404 23.0087C1.59771 23.6434 2.44358 24 3.32558 24H22.6744C23.5564 24 24.4023 23.6434 25.026 23.0087C25.6496 22.3739 26 21.513 26 20.6154V8.30769C26 7.41004 25.6496 6.54915 25.026 5.91441C24.4023 5.27967 23.5564 4.92308 22.6744 4.92308H22.0698C21.8351 4.92308 21.6036 4.86747 21.3937 4.76066C21.1838 4.65385 21.0013 4.49876 20.8605 4.30769L18.1758 0.664615C18.0237 0.458259 17.8266 0.29077 17.5999 0.175413C17.3732 0.0600565 17.1232 0 16.8698 0H9.13023C8.61628 0 8.13256 0.246154 7.82419 0.664615ZM13 7.38462C12.2457 7.38462 11.4987 7.53583 10.8018 7.82963C10.1049 8.12342 9.47164 8.55405 8.93825 9.09691C8.40485 9.63978 7.98174 10.2843 7.69306 10.9935C7.40439 11.7028 7.25581 12.463 7.25581 13.2308C7.25581 13.9985 7.40439 14.7587 7.69306 15.468C7.98174 16.1773 8.40485 16.8218 8.93825 17.3646C9.47164 17.9075 10.1049 18.3381 10.8018 18.6319C11.4987 18.9257 12.2457 19.0769 13 19.0769C14.5235 19.0769 15.9845 18.461 17.0618 17.3646C18.139 16.2683 18.7442 14.7813 18.7442 13.2308C18.7442 11.6803 18.139 10.1933 17.0618 9.09691C15.9845 8.00055 14.5235 7.38462 13 7.38462Z" fill="#EE920F"/>
</svg>
