<svg width="42" height="42" viewBox="0 0 42 42" fill="none" xmlns="http://www.w3.org/2000/svg">
<g clip-path="url(#clip0_779_610)">
<path d="M12.6008 9.29993C10.9299 9.29993 9.32749 9.96368 8.14601 11.1452C6.96453 12.3266 6.30078 13.9291 6.30078 15.5999V32.3999C6.30078 34.0708 6.96453 35.6732 8.14601 36.8547C9.32749 38.0362 10.9299 38.6999 12.6008 38.6999H21.4649L21.9101 36.9254C21.9381 36.8162 21.9682 36.7077 22.0004 36.5999H12.6008C11.4869 36.5999 10.4186 36.1574 9.63093 35.3698C8.84328 34.5821 8.40078 33.5138 8.40078 32.3999V17.6999H33.6008V23.8823L33.8171 23.666C34.3757 23.1074 35.0162 22.679 35.7008 22.3871V15.5999C35.7008 13.9291 35.037 12.3266 33.8556 11.1452C32.6741 9.96368 31.0716 9.29993 29.4008 9.29993H12.6008ZM19.1192 20.1065C19.217 20.2041 19.2945 20.3199 19.3475 20.4475C19.4004 20.5751 19.4277 20.7118 19.4277 20.8499C19.4277 20.988 19.4004 21.1248 19.3475 21.2524C19.2945 21.3799 19.217 21.4958 19.1192 21.5933L14.6105 26.0999L19.1192 30.6065C19.3163 30.8037 19.4271 31.0711 19.4271 31.3499C19.4271 31.6288 19.3163 31.8962 19.1192 32.0933C18.922 32.2905 18.6546 32.4013 18.3758 32.4013C18.097 32.4013 17.8295 32.2905 17.6324 32.0933L12.3824 26.8433C12.2846 26.7458 12.207 26.6299 12.1541 26.5024C12.1012 26.3748 12.0739 26.238 12.0739 26.0999C12.0739 25.9618 12.1012 25.8251 12.1541 25.6975C12.207 25.5699 12.2846 25.4541 12.3824 25.3565L17.6324 20.1065C17.7299 20.0087 17.8458 19.9312 17.9734 19.8782C18.1009 19.8253 18.2377 19.7981 18.3758 19.7981C18.5139 19.7981 18.6506 19.8253 18.7782 19.8782C18.9058 19.9312 19.0216 20.0087 19.1192 20.1065ZM24.3692 20.1065C24.172 19.9094 23.9046 19.7986 23.6258 19.7986C23.347 19.7986 23.0795 19.9094 22.8824 20.1065C22.6852 20.3037 22.5745 20.5711 22.5745 20.8499C22.5745 21.1288 22.6852 21.3962 22.8824 21.5933L27.3911 26.0999L22.8824 30.6065C22.7848 30.7042 22.7073 30.82 22.6545 30.9476C22.6016 31.0752 22.5745 31.2119 22.5745 31.3499C22.5745 31.488 22.6016 31.6247 22.6545 31.7523C22.7073 31.8798 22.7848 31.9957 22.8824 32.0933C22.98 32.191 23.0959 32.2684 23.2235 32.3212C23.351 32.3741 23.4877 32.4013 23.6258 32.4013C23.7638 32.4013 23.9006 32.3741 24.0281 32.3212C24.1557 32.2684 24.2716 32.191 24.3692 32.0933L29.6192 26.8433C29.717 26.7458 29.7945 26.6299 29.8475 26.5024C29.9004 26.3748 29.9277 26.238 29.9277 26.0999C29.9277 25.9618 29.9004 25.8251 29.8475 25.6975C29.7945 25.5699 29.717 25.4541 29.6192 25.3565L24.3692 20.1065ZM25.1588 35.2916L35.3018 25.1486C35.6666 24.7841 36.0997 24.4949 36.5763 24.2977C37.0529 24.1005 37.5637 23.9991 38.0795 23.9993C38.5952 23.9995 39.1059 24.1013 39.5824 24.2988C40.0588 24.4964 40.4917 24.7859 40.8563 25.1507C41.2209 25.5156 41.51 25.9487 41.7072 26.4253C41.9044 26.9019 42.0058 27.4126 42.0056 27.9284C42.0054 28.4442 41.9036 28.9549 41.7061 29.4313C41.5085 29.9078 41.219 30.3407 40.8542 30.7052L30.7112 40.8461C30.1201 41.437 29.3798 41.8565 28.5692 42.0599L25.4234 42.8453C25.1106 42.9233 24.7829 42.919 24.4723 42.8329C24.1616 42.7468 23.8785 42.5818 23.6505 42.354C23.4224 42.1262 23.2572 41.8432 23.1708 41.5326C23.0844 41.222 23.0798 40.8944 23.1575 40.5815L23.945 37.4357C24.1484 36.6251 24.5679 35.8848 25.1588 35.2937" fill="#EE920F"/>
</g>
<defs>
<clipPath id="clip0_779_610">
<rect width="42" height="42" fill="white"/>
</clipPath>
</defs>
</svg>
