<svg width="30" height="33" viewBox="0 0 30 33" fill="none" xmlns="http://www.w3.org/2000/svg">
<path d="M10.0674 30.9375H19.9326C21.8557 30.9375 22.8125 29.86 22.8125 27.7257V18.4087H16.0868C14.8977 18.4087 14.3405 17.7826 14.3405 16.4692V8.9375H10.0674C8.15381 8.9375 7.1875 10.025 7.1875 12.1598V27.7257C7.1875 29.8701 8.15381 30.9375 10.0674 30.9375ZM16.1149 17.0029H22.7102C22.6452 16.5821 22.3757 16.1715 21.9393 15.6688L16.8113 9.91251C16.3841 9.41997 15.9941 9.12226 15.6036 9.05002V16.449C15.6036 16.8181 15.7804 17.0029 16.1149 17.0029ZM11.4237 22.852C11.0428 22.852 10.7733 22.5543 10.7733 22.1541C10.7733 21.7535 11.0428 21.4563 11.4233 21.4563H18.5854C18.9572 21.4563 19.2453 21.754 19.2453 22.1537C19.2453 22.5543 18.9572 22.8516 18.5858 22.8516L11.4237 22.852ZM11.4237 26.7612C11.0428 26.7612 10.7733 26.4635 10.7733 26.0634C10.7733 25.6632 11.0428 25.3655 11.4233 25.3655H18.5854C18.9572 25.3655 19.2453 25.6632 19.2453 26.0634C19.2453 26.4635 18.9572 26.7612 18.5858 26.7612H11.4237Z" fill="#EE920F"/>
</svg>
