<svg width="197" height="197" viewBox="0 0 197 197" fill="none" xmlns="http://www.w3.org/2000/svg">
<path d="M137.9 27.0875C137.9 25.1282 138.678 23.2492 140.063 21.8638C141.449 20.4783 143.328 19.7 145.287 19.7H169.912C171.871 19.7 173.75 20.4783 175.136 21.8638C176.521 23.2492 177.3 25.1282 177.3 27.0875V51.7125C177.3 53.6718 176.521 55.5508 175.136 56.9363C173.75 58.3217 171.871 59.1 169.912 59.1C167.953 59.1 166.074 58.3217 164.688 56.9363C163.303 55.5508 162.525 53.6718 162.525 51.7125V44.916L118.495 88.9455C117.11 90.3289 115.232 91.106 113.275 91.106C111.317 91.106 109.439 90.3289 108.054 88.9455L83.7245 64.616L42.1575 106.183C41.4812 106.909 40.6656 107.491 39.7594 107.895C38.8532 108.299 37.875 108.516 36.8831 108.533C35.8911 108.551 34.9058 108.368 33.986 107.997C33.0661 107.625 32.2305 107.072 31.529 106.371C30.8275 105.669 30.2745 104.833 29.9029 103.914C29.5314 102.994 29.3489 102.008 29.3664 101.016C29.3839 100.025 29.601 99.0463 30.0048 98.1401C30.4085 97.2339 30.9907 96.4183 31.7165 95.742L78.504 48.9545C79.8892 47.5711 81.7668 46.794 83.7245 46.794C85.6822 46.794 87.5598 47.5711 88.945 48.9545L113.275 73.284L152.083 34.475H145.287C143.328 34.475 141.449 33.6967 140.063 32.3113C138.678 30.9258 137.9 29.0468 137.9 27.0875ZM36.937 137.9C38.8963 137.9 40.7753 138.678 42.1608 140.064C43.5462 141.449 44.3245 143.328 44.3245 145.288V169.913C44.3245 171.872 43.5462 173.751 42.1608 175.136C40.7753 176.522 38.8963 177.3 36.937 177.3C34.9777 177.3 33.0987 176.522 31.7133 175.136C30.3278 173.751 29.5495 171.872 29.5495 169.913V145.288C29.5495 143.328 30.3278 141.449 31.7133 140.064C33.0987 138.678 34.9777 137.9 36.937 137.9ZM83.7245 115.738C83.7245 113.778 82.9462 111.899 81.5608 110.514C80.1753 109.128 78.2963 108.35 76.337 108.35C74.3777 108.35 72.4987 109.128 71.1133 110.514C69.7278 111.899 68.9495 113.778 68.9495 115.738V169.913C68.9495 171.872 69.7278 173.751 71.1133 175.136C72.4987 176.522 74.3777 177.3 76.337 177.3C78.2963 177.3 80.1753 176.522 81.5608 175.136C82.9462 173.751 83.7245 171.872 83.7245 169.913V115.738ZM115.737 128.05C117.696 128.05 119.575 128.828 120.961 130.214C122.346 131.599 123.125 133.478 123.125 135.438V169.913C123.125 171.872 122.346 173.751 120.961 175.136C119.575 176.522 117.696 177.3 115.737 177.3C113.778 177.3 111.899 176.522 110.513 175.136C109.128 173.751 108.35 171.872 108.35 169.913V135.438C108.35 133.478 109.128 131.599 110.513 130.214C111.899 128.828 113.778 128.05 115.737 128.05ZM162.525 96.0375C162.525 94.0782 161.746 92.1992 160.361 90.8138C158.975 89.4283 157.096 88.65 155.137 88.65C153.178 88.65 151.299 89.4283 149.913 90.8138C148.528 92.1992 147.75 94.0782 147.75 96.0375V169.913C147.75 171.872 148.528 173.751 149.913 175.136C151.299 176.522 153.178 177.3 155.137 177.3C157.096 177.3 158.975 176.522 160.361 175.136C161.746 173.751 162.525 171.872 162.525 169.913V96.0375Z" fill="#005A8C"/>
</svg>
