<svg width="20" height="20" viewBox="0 0 20 20" fill="none" xmlns="http://www.w3.org/2000/svg">
<path d="M12.2906 1.99475C7.20992 -0.886387 2.58435 1.16646 0.918062 3.97248C0.371725 4.88947 -0.0142372 6.55821 0.000402739 7.88147C0.0303481 10.6045 1.43246 13.6394 4.45893 16.7008C8.18214 20.4668 11.9819 20.1377 13.1897 19.8216C14.7102 19.4225 15.7297 19.0827 15.5733 17.5592C15.5534 17.3589 15.3936 16.9955 15.1528 16.8367C14.3795 16.3325 12.7638 16.07 12.0038 14.8554C10.8992 13.0872 12.2727 12.9978 13.5889 13.7539C14.9977 14.5643 15.8029 15.07 17.217 14.9305C18.2538 14.8289 19.761 14.1566 19.9653 12.2768C20.149 10.5766 17.8399 5.14196 12.29 1.99475M14.3642 11.2361C13.9749 11.8727 13.0133 11.6546 12.3831 11.0537C11.753 10.4529 11.6711 9.4515 12.0797 9.0581C12.4956 8.65969 13.2775 8.75053 13.9084 9.35136C14.5372 9.95363 14.669 10.7354 14.3642 11.2361Z" fill="#AC5810"/>
<path d="M12.5143 1.34598C7.4329 -1.53515 2.79603 0.692934 1.12974 3.49896C-0.53855 6.30642 0.186793 11.5043 4.68192 16.0521C8.40447 19.8173 12.2049 19.489 13.4127 19.1721C14.9332 18.7737 16.0059 17.9955 15.3371 17.0034C14.876 16.3181 13.2243 15.8017 12.2275 14.2066C11.1228 12.4378 12.4977 12.3484 13.8133 13.1051C15.222 13.9148 16.0279 14.4212 17.442 14.2818C18.4781 14.1795 20.0452 13.3176 19.9986 11.5759C19.9501 9.86421 18.0642 4.49463 12.5143 1.34598ZM14.852 11.186C14.3782 11.7368 13.3681 11.5866 12.5962 10.8534C11.8262 10.1188 11.5847 9.07812 12.0591 8.52879C12.5329 7.97802 13.5431 8.12823 14.315 8.86139C15.0869 9.59455 15.3265 10.6374 14.852 11.186Z" fill="#EE920F"/>
<path d="M7.34134 13.6787C7.53299 13.153 8.89384 12.5772 10.1449 13.5335C10.4956 13.8017 10.9348 14.4848 10.8902 15.3431C10.7438 18.147 6.46294 16.0978 7.34134 13.6787Z" fill="#EEEEEE"/>
<path d="M3.36659 8.92429C3.80379 8.17325 4.86718 8.08742 5.79682 8.73618C6.62531 9.3134 7.31738 10.7354 6.29591 11.6652C5.74891 12.1638 4.80197 11.8548 4.21837 11.3734C3.50966 10.7926 2.89545 9.73256 3.36659 8.92429Z" fill="#2686C6"/>
<path d="M9.0121 2.37032C9.14652 1.77521 10.0861 1.67292 10.7516 1.93972C11.9015 2.40108 12.4219 3.6242 11.998 4.30514C11.3771 5.30152 10.0249 4.95962 9.51252 4.38954C8.64277 3.42392 8.89897 2.86958 9.0121 2.37032Z" fill="#FFEE58"/>
<path d="M15.6752 5.28514C16.5962 5.73577 16.7159 6.4489 16.5403 6.96962C16.4298 7.29149 16.2055 7.73282 15.7464 7.77287C14.9691 7.84082 14.8613 7.15058 14.307 6.96103C13.8412 6.80153 13.6515 6.11701 13.8345 5.65709C14.0049 5.23364 14.5006 4.70935 15.6752 5.28514Z" fill="#7CB342"/>
<path d="M10.5618 15.8782C10.3322 16.1021 9.53497 16.3775 8.52348 15.698C8.18078 15.4669 7.85271 15.1329 7.66838 14.6322C7.52397 14.2388 7.55525 13.8597 7.62046 13.6916C7.80679 13.2066 8.09094 13.1172 8.09094 13.1172C7.8048 13.0958 7.26445 13.5035 7.17461 14.0385C7.146 14.2066 6.94437 15.2573 8.24067 16.2108C9.35663 17.0334 11.0076 16.9568 10.8991 15.301C10.8368 15.5225 10.7207 15.722 10.5618 15.8782Z" fill="#B0B0B0"/>
<path d="M6.78223 10.2918C6.75096 10.9305 6.05489 11.2667 5.6676 11.2681C4.57094 11.2696 3.58607 10.5293 3.51819 9.21172C3.50621 8.97568 3.61468 8.63449 3.61468 8.63449C3.46961 8.7003 3.26532 9.03648 3.22206 9.22602C2.96586 10.3633 4.03192 11.6887 5.1552 11.9569C5.72416 12.0929 6.44152 11.8833 6.70238 11.3361C6.88871 10.9463 6.85211 10.6122 6.78223 10.2918Z" fill="#01579B"/>
<path d="M10.6191 4.39076C9.8738 4.29921 9.46122 3.77562 9.35342 3.65546C9.05663 3.32285 8.87429 2.99955 8.98076 2.52031C9.01404 2.36653 9.09522 2.16983 9.19504 2.05896C9.07393 2.10188 8.87762 2.38226 8.81573 2.53462C8.75251 2.68626 8.52293 3.25705 9.01537 3.95945C9.31948 4.39577 9.85051 4.88788 10.6357 5.0059C11.1927 5.08959 11.5927 4.875 11.9254 4.52666C12.1516 4.28848 12.2515 3.75202 12.1164 3.47521C12.1383 3.67692 11.7936 4.53525 10.6191 4.39076Z" fill="#DF7F14"/>
<path d="M16.7488 6.56043C16.6885 6.35464 16.5925 6.16294 16.466 5.99536C16.5505 6.1706 16.7189 6.69633 16.3662 7.20704C16.1879 7.46454 15.6522 7.7814 15.02 7.23064C14.8337 7.06756 14.6839 6.90662 14.3479 6.7743C13.4948 6.43668 13.8668 5.50325 14.1636 5.21356C13.9307 5.34446 13.719 5.57835 13.6312 5.93599C13.5074 6.43454 13.8122 6.95741 14.2747 7.20704C14.8004 7.49172 14.9701 8.04033 15.6908 8.04033C15.7272 8.04033 15.766 8.03866 15.8072 8.03533C16.293 7.99098 16.4973 7.78856 16.6457 7.54179C16.8267 7.23422 16.832 6.88516 16.7482 6.55971" fill="#558B2F"/>
<path d="M3.71458 3.15207C4.09389 2.74937 4.75401 2.32378 5.72092 2.86596C6.30319 3.19141 6.98062 3.57408 6.67384 4.89734C6.48486 5.71777 5.37289 6.15265 4.44458 5.23853C4.07725 4.87732 2.6798 4.25002 3.71458 3.15207Z" fill="#F44336"/>
<path d="M6.8957 4.71996C6.90768 4.40738 6.75796 4.02614 6.70605 3.89739C6.7147 4.08479 6.86576 4.55902 6.17236 5.18632C6.01228 5.32494 5.8206 5.41496 5.61722 5.44704C5.41384 5.47911 5.20617 5.45207 5.0158 5.36872C4.77158 5.265 4.42022 4.83083 4.16935 4.72139C3.23572 4.31798 3.63831 3.24291 3.77007 3.09628C3.52743 3.28234 3.3629 3.5638 3.31224 3.87951C3.22573 4.36447 3.30559 4.82225 3.92446 5.34583C5.68125 6.83503 6.22027 5.93736 6.41192 5.70919C6.65281 5.43023 6.8824 5.06544 6.8957 4.71996Z" fill="#C62828"/>
<path d="M10.3553 2.00205C10.1111 1.87903 9.41238 1.91479 9.27729 2.54066C9.19611 2.91618 9.45231 3.2967 9.6932 3.25236C9.96737 3.20229 9.82164 2.74236 9.986 2.61218C10.2369 2.41548 10.698 2.17587 10.3553 2.00205ZM5.2014 2.91403C4.9605 2.74236 4.18991 2.74093 3.959 3.37538C3.81925 3.75663 4.03686 4.19795 4.29838 4.1908C4.59584 4.18365 4.45276 3.8067 4.70031 3.56708C5.01308 3.26452 5.53878 3.15365 5.2014 2.91403ZM5.08694 8.64339C4.85869 8.48818 4.18326 8.42666 3.90377 8.99531C3.69881 9.41375 3.98029 9.8751 4.22451 9.86294C4.50267 9.84863 4.40951 9.37298 4.58719 9.26568C4.85869 9.10332 5.40636 8.86155 5.08694 8.64339ZM8.96719 13.405C8.72297 13.282 8.02358 13.3177 7.88916 13.9436C7.80731 14.3191 8.06351 14.7004 8.30507 14.6553C8.57924 14.6052 8.43284 14.1453 8.59787 14.0151C8.84741 13.8184 9.30857 13.5788 8.96719 13.405ZM15.2358 5.34382C15.0162 5.17645 14.3228 5.07774 14.0865 5.66784C13.9448 6.02191 14.1331 6.44607 14.3773 6.4475C14.6555 6.44893 14.5869 5.96969 14.7719 5.87313C15.0494 5.72864 15.5439 5.57987 15.2358 5.34382Z" fill="white"/>
</svg>
