<svg width="178" height="158" viewBox="0 0 178 158" fill="none" xmlns="http://www.w3.org/2000/svg">
<g clip-path="url(#clip0_839_598)">
<path d="M89 7.18182C94.2454 7.18182 99.2759 9.26261 102.985 12.9665C106.694 16.6703 108.778 21.6938 108.778 26.9318C108.778 32.1698 106.694 37.1933 102.985 40.8972C99.2759 44.601 94.2454 46.6818 89 46.6818C83.7546 46.6818 78.7241 44.601 75.015 40.8972C71.3059 37.1933 69.2222 32.1698 69.2222 26.9318C69.2222 21.6938 71.3059 16.6703 75.015 12.9665C78.7241 9.26261 83.7546 7.18182 89 7.18182ZM118.667 103.463C118.667 111.178 114.742 117.967 108.778 121.948V135.557H69.2222V121.948C63.258 117.967 59.3333 111.178 59.3333 103.463V91.1193C59.3333 74.7638 72.6215 61.4943 89 61.4943C105.378 61.4943 118.667 74.7638 118.667 91.1193V103.463ZM123.611 135.557V127.132C129.761 120.189 133.5 111.024 133.5 100.994V91.1193C133.5 82.8799 131.244 75.1959 127.35 68.5611C130.781 67.1724 134.52 66.4318 138.444 66.4318C154.823 66.4318 168.111 79.7013 168.111 96.0568V105.932C168.111 113.245 164.125 119.633 158.222 123.028V135.557H123.611ZM19.7778 123.028C13.8753 119.633 9.88889 113.245 9.88889 105.932V96.0568C9.88889 79.7013 23.1771 66.4318 39.5556 66.4318C43.4802 66.4318 47.2194 67.2033 50.6497 68.5611C46.7559 75.165 44.5 82.8799 44.5 91.1193V100.994C44.5 111.024 48.2392 120.158 54.3889 127.132V135.557H19.7778V123.028ZM39.5556 17.0568C41.8282 17.0568 44.0785 17.5038 46.1781 18.3723C48.2777 19.2407 50.1855 20.5137 51.7924 22.1184C53.3994 23.7231 54.6741 25.6282 55.5438 27.7248C56.4135 29.8215 56.8611 32.0687 56.8611 34.3381C56.8611 36.6075 56.4135 38.8547 55.5438 40.9513C54.6741 43.048 53.3994 44.953 51.7924 46.5578C50.1855 48.1625 48.2777 49.4354 46.1781 50.3039C44.0785 51.1723 41.8282 51.6193 39.5556 51.6193C37.283 51.6193 35.0326 51.1723 32.933 50.3039C30.8334 49.4354 28.9257 48.1625 27.3187 46.5578C25.7117 44.953 24.437 43.048 23.5673 40.9513C22.6976 38.8547 22.25 36.6075 22.25 34.3381C22.25 32.0687 22.6976 29.8215 23.5673 27.7248C24.437 25.6282 25.7117 23.7231 27.3187 22.1184C28.9257 20.5137 30.8334 19.2407 32.933 18.3723C35.0326 17.5038 37.283 17.0568 39.5556 17.0568ZM138.444 17.0568C140.717 17.0568 142.967 17.5038 145.067 18.3723C147.167 19.2407 149.074 20.5137 150.681 22.1184C152.288 23.7231 153.563 25.6282 154.433 27.7248C155.302 29.8215 155.75 32.0687 155.75 34.3381C155.75 36.6075 155.302 38.8547 154.433 40.9513C153.563 43.048 152.288 44.953 150.681 46.5578C149.074 48.1625 147.167 49.4354 145.067 50.3039C142.967 51.1723 140.717 51.6193 138.444 51.6193C136.172 51.6193 133.922 51.1723 131.822 50.3039C129.722 49.4354 127.815 48.1625 126.208 46.5578C124.601 44.953 123.326 43.048 122.456 40.9513C121.587 38.8547 121.139 36.6075 121.139 34.3381C121.139 32.0687 121.587 29.8215 122.456 27.7248C123.326 25.6282 124.601 23.7231 126.208 22.1184C127.815 20.5137 129.722 19.2407 131.822 18.3723C133.922 17.5038 136.172 17.0568 138.444 17.0568ZM7.41667 150.369H170.583C174.693 150.369 178 153.671 178 157.776C178 161.88 174.693 165.182 170.583 165.182H7.41667C3.3066 165.182 0 161.88 0 157.776C0 153.671 3.3066 150.369 7.41667 150.369Z" fill="#005A8C"/>
</g>
<defs>
<clipPath id="clip0_839_598">
<rect width="178" height="158" fill="white"/>
</clipPath>
</defs>
</svg>
