<svg width="36" height="32" viewBox="0 0 36 32" fill="none" xmlns="http://www.w3.org/2000/svg">
<path d="M15.75 32C15.75 32 13.5 32 13.5 29.3333C13.5 26.6667 15.75 18.6667 24.75 18.6667C33.75 18.6667 36 26.6667 36 29.3333C36 32 33.75 32 33.75 32H15.75ZM24.75 16C26.5402 16 28.2571 15.1571 29.523 13.6569C30.7888 12.1566 31.5 10.1217 31.5 8C31.5 5.87827 30.7888 3.84344 29.523 2.34315C28.2571 0.842855 26.5402 0 24.75 0C22.9598 0 21.2429 0.842855 19.977 2.34315C18.7112 3.84344 18 5.87827 18 8C18 10.1217 18.7112 12.1566 19.977 13.6569C21.2429 15.1571 22.9598 16 24.75 16ZM11.736 32C11.4026 31.1674 11.2363 30.2548 11.25 29.3333C11.25 25.72 12.78 22 15.606 19.4133C14.1957 18.8972 12.7259 18.6452 11.25 18.6667C2.25 18.6667 0 26.6667 0 29.3333C0 32 2.25 32 2.25 32H11.736ZM10.125 16C11.6168 16 13.0476 15.2976 14.1025 14.0474C15.1574 12.7971 15.75 11.1014 15.75 9.33333C15.75 7.56522 15.1574 5.86953 14.1025 4.61929C13.0476 3.36905 11.6168 2.66667 10.125 2.66667C8.63316 2.66667 7.20242 3.36905 6.14752 4.61929C5.09263 5.86953 4.5 7.56522 4.5 9.33333C4.5 11.1014 5.09263 12.7971 6.14752 14.0474C7.20242 15.2976 8.63316 16 10.125 16Z" fill="#EE920F"/>
</svg>
