<svg width="154" height="154" viewBox="0 0 154 154" fill="none" xmlns="http://www.w3.org/2000/svg">
<path d="M28.8753 105.875C19.2503 113.96 16.042 137.958 16.042 137.958C16.042 137.958 40.0403 134.75 48.1253 125.125C52.6812 119.735 52.617 111.458 47.5478 106.453C45.0537 104.072 41.7683 102.696 38.3221 102.59C34.8759 102.483 31.5118 103.653 28.8753 105.875ZM77.0003 96.25L57.7503 77C61.1649 68.1414 65.4645 59.6498 70.5837 51.6542C78.0602 39.6998 88.4709 29.8571 100.825 23.0621C113.18 16.2671 127.067 12.7459 141.167 12.8333C141.167 30.2867 136.162 60.9583 102.667 83.4167C94.561 88.5399 85.9626 92.8391 77.0003 96.25Z" stroke="#005A8C" stroke-width="4" stroke-linecap="round" stroke-linejoin="round"/>
<path d="M57.7503 77H25.667C25.667 77 29.1962 57.5575 38.5003 51.3333C48.8953 44.4033 70.5837 51.3333 70.5837 51.3333M77.0003 96.25V128.333C77.0003 128.333 96.4428 124.804 102.667 115.5C109.597 105.105 102.667 83.4167 102.667 83.4167" stroke="#005A8C" stroke-width="4" stroke-linecap="round" stroke-linejoin="round"/>
</svg>
