<svg width="24" height="26" viewBox="0 0 24 26" fill="none" xmlns="http://www.w3.org/2000/svg">
<path d="M17.5984 16.7676H16.4863L16.0922 16.3561C16.9719 15.2495 17.6149 13.9461 17.9751 12.5391C18.3352 11.1321 18.4037 9.65625 18.1756 8.21724C17.514 3.98017 14.2481 0.596604 10.3065 0.0784006C8.92075 -0.111405 7.51328 0.0445217 6.19177 0.53425C4.87026 1.02398 3.66974 1.83453 2.68207 2.90388C1.6944 3.97322 0.945766 5.27303 0.493443 6.70382C0.0411211 8.13462 -0.102896 9.65848 0.0724122 11.1588C0.551034 15.4264 3.67616 18.9623 7.5896 19.6787C8.91869 19.9257 10.2818 19.8515 11.5813 19.4616C12.8809 19.0716 14.0847 18.3755 15.1068 17.423L15.4869 17.8497V19.0538L21.4696 25.5313C22.0468 26.1562 22.99 26.1562 23.5671 25.5313C24.1443 24.9064 24.1443 23.8853 23.5671 23.2604L17.5984 16.7676ZM9.15216 16.7676C5.64695 16.7676 2.81745 13.7041 2.81745 9.90902C2.81745 6.11395 5.64695 3.05045 9.15216 3.05045C12.6574 3.05045 15.4869 6.11395 15.4869 9.90902C15.4869 13.7041 12.6574 16.7676 9.15216 16.7676Z" fill="#EE920F"/>
</svg>
