<svg width="18" height="19" viewBox="0 0 18 19" fill="none" xmlns="http://www.w3.org/2000/svg">
<path d="M8.99408 0.000411382C9.30835 0.000411382 9.61783 0.0206275 9.90571 0.0681949C10.1893 0.104416 10.4691 0.165705 10.7418 0.251329C11.0137 0.332194 11.2831 0.436445 11.5502 0.564084C11.8105 0.68657 12.078 0.836408 12.3455 0.999326C12.7977 1.28473 13.2427 1.51543 13.6962 1.69975C14.5885 2.05466 15.5325 2.26544 16.4922 2.32408C16.9776 2.35975 17.4802 2.37799 18 2.37878V7.13551C18 8.0385 17.8836 8.89709 17.6509 9.71129C17.4274 10.5154 17.1097 11.2909 16.7045 12.0219C16.3011 12.7519 15.8236 13.4392 15.2795 14.0732C14.7274 14.7219 14.1294 15.3308 13.4898 15.895C12.8413 16.4603 12.1592 16.9865 11.4471 17.4707C10.7338 17.9622 10.0165 18.4153 9.29516 18.8299L9.00727 19L8.71939 18.8299C7.97948 18.4054 7.2568 17.952 6.55308 17.4707C5.83717 16.9917 5.1547 16.4652 4.51031 15.895C3.87121 15.3307 3.27354 14.7219 2.72184 14.0732C2.17961 13.4362 1.70002 12.7493 1.28963 12.0219C0.891705 11.2875 0.574417 10.5128 0.343216 9.71129C0.110585 8.87229 -0.00484416 8.00562 0.000155714 7.13551V2.37878C0.519943 2.37799 1.02294 2.35975 1.50914 2.32408C1.98861 2.29176 2.46496 2.22379 2.93416 2.12073C3.39357 2.01846 3.85298 1.88289 4.3052 1.69975C4.77433 1.51175 5.22421 1.27959 5.64865 1.00646C6.17643 0.666354 6.71141 0.415436 7.2392 0.25014C7.80765 0.0775768 8.39962 -0.00666443 8.99408 0.000411382ZM16.7933 3.54775C15.8853 3.50369 14.9858 3.3532 14.1136 3.09942C13.2463 2.84226 12.42 2.46472 11.6594 1.97802C11.2647 1.72188 10.8365 1.52062 10.3867 1.37986C9.93711 1.24544 9.46966 1.17889 9.00008 1.18246C8.527 1.1796 8.05609 1.24612 7.60265 1.37986C7.1523 1.51642 6.72469 1.71797 6.33357 1.97802C5.57136 2.46689 4.74304 2.84605 3.87337 3.10418C3.02332 3.34915 2.13208 3.49899 1.19967 3.55369V7.14146C1.19967 7.9287 1.30282 8.68502 1.50914 9.41042C1.71951 10.1306 2.00913 10.8257 2.37279 11.4832C2.74095 12.1474 3.17491 12.7736 3.66826 13.3526C4.16845 13.9365 4.70223 14.4799 5.278 14.996C5.85376 15.5121 6.45712 15.9902 7.08806 16.4302C7.7254 16.871 8.36274 17.2741 9.00008 17.6396C9.65257 17.2636 10.2885 16.8601 10.9061 16.4302C11.542 15.9914 12.1486 15.5123 12.7222 14.996C13.2979 14.4799 13.8329 13.9365 14.3331 13.3526C14.8264 12.7736 15.2604 12.1474 15.6286 11.4832C15.9904 10.8264 16.2757 10.1311 16.479 9.41042C16.6918 8.67271 16.7976 7.90873 16.7933 7.14146V3.54775Z" fill="#EE920F"/>
<path fill-rule="evenodd" clip-rule="evenodd" d="M13.4661 5.60027L12.9383 5.15076L12.4513 5.19238L7.22148 11.3143L5.44021 8.79323L4.9604 8.71236L4.40503 9.10598L4.32227 9.58166L6.61213 12.8234L6.87242 12.9661L7.4206 12.9994L7.70129 12.8781L13.5009 6.08189L13.4661 5.60027Z" fill="#EE920F"/>
</svg>
