<svg width="35" height="20" viewBox="0 0 35 20" fill="none" xmlns="http://www.w3.org/2000/svg">
<path d="M12.3431 0C10.3124 0 8.36487 0.8067 6.92893 2.24264L2.24264 6.92893C0.8067 8.36487 0 10.3124 0 12.3431C0 16.5719 3.42809 20 7.65687 20C9.6876 20 11.6351 19.1933 13.0711 17.7573L16.3126 14.5158C16.3126 14.5157 16.3127 14.5159 16.3126 14.5158L25.7573 5.07107C26.4431 4.38527 27.3733 4 28.3431 4C29.9669 4 31.3435 5.05827 31.8207 6.52271L34.8015 3.54197C33.4417 1.41223 31.0573 0 28.3431 0C26.3124 0 24.3649 0.8067 22.9289 2.24264L10.2427 14.9289C9.55687 15.6147 8.62673 16 7.65687 16C5.63723 16 4 14.3628 4 12.3431C4 11.3733 4.38527 10.4431 5.07107 9.75733L9.75733 5.07107C10.4431 4.38527 11.3733 4 12.3431 4C13.9669 4 15.3435 5.05832 15.8207 6.52281L18.8015 3.54205C17.4417 1.41227 15.0574 0 12.3431 0Z" fill="#394149"/>
</svg>
