<svg width="35" height="20" viewBox="0 0 35 20" fill="none" xmlns="http://www.w3.org/2000/svg">
<path d="M9.04386 14.9289C8.35806 15.6147 7.42793 16 6.45806 16C4.83453 16 3.45807 14.942 2.98067 13.4778L0 16.4585C1.35987 18.5879 3.74406 20 6.45806 20C8.4888 20 10.4363 19.1933 11.8723 17.7573L24.5585 5.07107C25.2443 4.38527 26.1745 4 27.1443 4C29.164 4 30.8012 5.63723 30.8012 7.65687C30.8012 8.62673 30.4159 9.55687 29.7301 10.2427L25.0439 14.9289C24.3581 15.6147 23.4279 16 22.4581 16C20.8344 16 19.4579 14.9418 18.9805 13.4775L15.9999 16.4582C17.3597 18.5879 19.7439 20 22.4581 20C24.4888 20 26.4363 19.1933 27.8723 17.7573L32.5585 13.0711C33.9945 11.6351 34.8012 9.6876 34.8012 7.65687C34.8012 3.42809 31.3731 0 27.1443 0C25.1136 0 23.1661 0.8067 21.7301 2.24264L9.04386 14.9289Z" fill="#394149"/>
</svg>
